<svg width="32" height="33" viewBox="0 0 32 33" fill="none" xmlns="http://www.w3.org/2000/svg">
<path d="M26.6665 8.94002H22.6665V6.27336C22.6665 4.80269 21.4705 3.60669 19.9998 3.60669H11.9998C10.5292 3.60669 9.33317 4.80269 9.33317 6.27336V8.94002H5.33317C3.8625 8.94002 2.6665 10.136 2.6665 11.6067V26.2734C2.6665 27.744 3.8625 28.94 5.33317 28.94H26.6665C28.1372 28.94 29.3332 27.744 29.3332 26.2734V11.6067C29.3332 10.136 28.1372 8.94002 26.6665 8.94002ZM19.9998 6.27336V8.94002H11.9998V6.27336H19.9998ZM5.33317 11.6067H26.6665V16.94H22.6665V14.2734H19.9998V16.94H11.9998V14.2734H9.33317V16.94H5.33317V11.6067ZM5.33317 26.2734V19.6067H9.33317V22.2734H11.9998V19.6067H19.9998V22.2734H22.6665V19.6067H26.6678V26.2734H5.33317Z" fill="#35718F"/>
</svg>
