<svg width="32" height="33" viewBox="0 0 32 33" fill="none" xmlns="http://www.w3.org/2000/svg">
<path d="M15.9998 3.60669C8.64784 3.60669 2.6665 9.58802 2.6665 16.94C2.6665 24.292 8.64784 30.2734 15.9998 30.2734C23.3518 30.2734 29.3332 24.292 29.3332 16.94C29.3332 9.58802 23.3518 3.60669 15.9998 3.60669ZM5.33317 16.94C5.33317 15.7414 5.54117 14.5907 5.90784 13.5147L7.99984 15.6067L10.6665 18.2734V20.94L13.3332 23.6067L14.6665 24.94V27.5147C9.4145 26.8547 5.33317 22.3694 5.33317 16.94ZM24.4398 23.4374C23.5692 22.736 22.2492 22.2734 21.3332 22.2734V20.94C21.3332 20.2328 21.0522 19.5545 20.5521 19.0544C20.052 18.5543 19.3737 18.2734 18.6665 18.2734H13.3332V14.2734C14.0404 14.2734 14.7187 13.9924 15.2188 13.4923C15.7189 12.9922 15.9998 12.3139 15.9998 11.6067V10.2734H17.3332C18.0404 10.2734 18.7187 9.9924 19.2188 9.49231C19.7189 8.99221 19.9998 8.31393 19.9998 7.60669V7.05869C23.9038 8.64402 26.6665 12.4734 26.6665 16.94C26.6663 19.293 25.8829 21.5789 24.4398 23.4374Z" fill="#35718F"/>
</svg>
