<svg width="32" height="33" viewBox="0 0 32 33" fill="none" xmlns="http://www.w3.org/2000/svg">
<path d="M16 3.60669C14.6815 3.60669 13.3925 3.99768 12.2962 4.73023C11.1999 5.46277 10.3454 6.50396 9.8408 7.72213C9.33622 8.94031 9.2042 10.2808 9.46143 11.574C9.71867 12.8672 10.3536 14.0551 11.286 14.9874C12.2183 15.9198 13.4062 16.5547 14.6994 16.8119C15.9926 17.0692 17.333 16.9371 18.5512 16.4326C19.7694 15.928 20.8106 15.0735 21.5431 13.9772C22.2757 12.8808 22.6667 11.5919 22.6667 10.2734C22.6667 8.50525 21.9643 6.80955 20.714 5.55931C19.4638 4.30907 17.7681 3.60669 16 3.60669ZM16 14.2734C15.2089 14.2734 14.4355 14.0388 13.7777 13.5992C13.1199 13.1597 12.6072 12.535 12.3045 11.8041C12.0017 11.0732 11.9225 10.2689 12.0769 9.493C12.2312 8.71707 12.6122 8.00434 13.1716 7.44493C13.731 6.88552 14.4437 6.50456 15.2196 6.35022C15.9956 6.19587 16.7998 6.27509 17.5307 6.57784C18.2616 6.88059 18.8864 7.39328 19.3259 8.05107C19.7654 8.70887 20 9.48223 20 10.2734C20 11.3342 19.5786 12.3516 18.8284 13.1018C18.0783 13.8519 17.0609 14.2734 16 14.2734ZM28 28.94V27.6067C28 25.1313 27.0167 22.7574 25.2663 21.007C23.516 19.2567 21.142 18.2734 18.6667 18.2734H13.3333C10.858 18.2734 8.48401 19.2567 6.73367 21.007C4.98333 22.7574 4 25.1313 4 27.6067V28.94H6.66667V27.6067C6.66667 25.8386 7.36905 24.1429 8.61929 22.8926C9.86953 21.6424 11.5652 20.94 13.3333 20.94H18.6667C20.4348 20.94 22.1305 21.6424 23.3807 22.8926C24.631 24.1429 25.3333 25.8386 25.3333 27.6067V28.94H28Z" fill="#35718F"/>
</svg>
