<svg width="113" height="49" viewBox="0 0 113 49" fill="none" xmlns="http://www.w3.org/2000/svg">
<path fill-rule="evenodd" clip-rule="evenodd" d="M19.9454 12.9441H2.69002C1.97719 12.9441 1.29351 13.227 0.789136 13.7307C0.284766 14.2345 0.000951367 14.9178 3.15904e-05 15.6306V32.8587C-0.00168142 33.2121 0.0662881 33.5625 0.200054 33.8897C0.333821 34.2169 0.530761 34.5145 0.779617 34.7655C1.02847 35.0165 1.32436 35.2161 1.65038 35.3527C1.97639 35.4893 2.32613 35.5603 2.6796 35.5617H19.9476C20.3009 35.5613 20.6507 35.4913 20.977 35.3556C21.3032 35.22 21.5996 35.0215 21.8491 34.7713C22.0986 34.5212 22.2964 34.2243 22.4312 33.8977C22.5659 33.5711 22.635 33.2211 22.6345 32.8678V15.6306C22.6336 14.9179 22.3499 14.2347 21.8457 13.731C21.3415 13.2274 20.6581 12.9443 19.9454 12.9441V12.9441ZM9.76207 29.235C9.76104 29.4734 9.66535 29.7017 9.49604 29.8697C9.32673 30.0376 9.09766 30.1314 8.85919 30.1305H5.08454C4.84775 30.1293 4.62104 30.0345 4.45397 29.8667C4.2869 29.6989 4.19305 29.4718 4.19294 29.235V18.013C4.19282 17.7761 4.28659 17.5489 4.45371 17.381C4.62084 17.2132 4.84768 17.1184 5.08454 17.1175H8.85572C9.09294 17.1184 9.32019 17.213 9.48793 17.3808C9.65567 17.5485 9.75031 17.7758 9.75123 18.013L9.76207 29.235ZM18.4624 24.0824C18.4624 24.3199 18.3681 24.5477 18.2002 24.7157C18.0322 24.8837 17.8045 24.9782 17.5669 24.9783H13.7853C13.548 24.9774 13.3207 24.8827 13.153 24.7149C12.9852 24.547 12.8906 24.3197 12.8898 24.0824V18.013C12.8907 17.7758 12.9854 17.5485 13.1531 17.3808C13.3209 17.213 13.5481 17.1184 13.7853 17.1175H17.5561C17.793 17.1183 18.02 17.213 18.1872 17.3809C18.3544 17.5487 18.4482 17.776 18.4481 18.013L18.4624 24.0824Z" fill="url(#paint0_linear_1_3149)"/>
<path d="M46.897 14.6013V18.9751H41.7158V35.5619H36.7193V18.9751H31.5381V14.6013H46.897Z" fill="#293856"/>
<path d="M53.2552 35.5618H48.6362V19.2458H53.2552V22.3696C54.1329 20.1686 55.536 18.8596 58.0343 19.0193V23.8526C54.7707 23.5988 53.2552 24.3962 53.2552 27.0107V35.5618Z" fill="#293856"/>
<path d="M83.2692 35.6888C80.2417 35.6888 78.3379 34.2384 78.3379 30.8082V12.9441H82.9898V30.1687C82.9898 31.1583 83.6406 31.5102 84.4403 31.5102C84.6704 31.5146 84.9006 31.5036 85.1292 31.4772V35.4983C84.521 35.6472 83.8951 35.7113 83.2692 35.6888Z" fill="#293856"/>
<path d="M92.9734 35.6888C89.9459 35.6888 88.0386 34.2384 88.0386 30.8082V12.9441H92.6905V30.1687C92.6905 31.1583 93.3465 31.5102 94.1587 31.5102C94.3877 31.5151 94.6168 31.504 94.8442 31.4772V35.4983C94.2325 35.6485 93.6028 35.7126 92.9734 35.6888Z" fill="#293856"/>
<path d="M97.0728 27.3969C97.0728 22.3571 99.9736 18.9087 104.969 18.9087C109.965 18.9087 112.805 22.3458 112.805 27.3969C112.805 32.448 109.933 35.9441 104.97 35.9441C100.007 35.9441 97.0728 32.4037 97.0728 27.3969ZM101.601 27.3969C101.601 29.8513 102.631 31.7985 104.97 31.7985C107.309 31.7985 108.28 29.8513 108.28 27.3969C108.28 24.9425 107.283 23.0456 104.97 23.0456C102.658 23.0456 101.601 24.9386 101.601 27.3969Z" fill="#293856"/>
<path d="M64.2698 28.872C65.5632 29.014 66.863 29.0902 68.1642 29.1003C71.7028 29.1003 74.6904 28.1505 74.6904 24.7243C74.6904 21.3991 71.6195 18.9009 67.9247 18.9009C62.9504 18.9009 59.7632 22.5089 59.7632 27.5487C59.7632 32.7808 62.5113 35.8877 68.7226 35.8877C70.5651 35.9028 72.3944 35.5759 74.1177 34.9236V31.0149C72.5224 31.526 70.7275 32.0336 68.8857 32.0336C66.4126 32.0341 64.6889 31.2214 64.2698 28.872ZM67.8305 22.4616C69.1395 22.4616 70.1908 23.3498 70.1908 24.5646C70.1908 26.1265 68.5421 26.6168 66.6413 26.6168C65.8327 26.6129 65.0255 26.5487 64.2264 26.4246C64.2867 25.6627 64.5053 24.9218 64.8681 24.2492C65.1594 23.7163 65.5874 23.2706 66.1081 22.958C66.6287 22.6454 67.2233 22.477 67.8305 22.4703V22.4616Z" fill="#293856"/>
<defs>
<linearGradient id="paint0_linear_1_3149" x1="11.3162" y1="35.5617" x2="11.3162" y2="12.9441" gradientUnits="userSpaceOnUse">
<stop stop-color="#0052CC"/>
<stop offset="1" stop-color="#2684FF"/>
</linearGradient>
</defs>
</svg>
