<svg width="161" height="49" viewBox="0 0 161 49" fill="none" xmlns="http://www.w3.org/2000/svg">
<path d="M10.3486 15.794L9.01074 20.7181L16.6683 15.766L11.6601 34.4515L16.7464 34.4558L24.1448 6.85645" fill="#3395FF"/>
<path d="M2.10656 26.6004L0 34.4559H10.4249L14.6907 18.4757L2.10656 26.6004ZM38.319 19.6845C38.0642 20.6316 37.5732 21.3272 36.841 21.7715C36.1105 22.2149 35.0853 22.4374 33.7619 22.4374H29.5572L31.0335 16.9332H35.2382C36.5598 16.9332 37.4679 17.154 37.9605 17.6042C38.4532 18.0544 38.5721 18.7425 38.319 19.6938V19.6845ZM42.6723 19.5749C43.2074 17.5872 42.9865 16.0583 42.008 14.988C41.0312 13.9262 39.3171 13.3911 36.8707 13.3911H27.4872L21.8386 34.4652H26.3974L28.6738 25.971H31.6638C32.3348 25.971 32.8632 26.0814 33.2488 26.2938C33.6353 26.5146 33.8621 26.8969 33.9317 27.449L34.7455 34.4652H39.6296L38.838 27.9247C38.6766 26.4637 38.0081 25.6058 36.8334 25.3509C38.3309 24.9177 39.5855 24.1957 40.5963 23.1934C41.6 22.1984 42.3172 20.9514 42.6723 19.5834V19.5749ZM53.7538 26.9224C53.3715 28.3494 52.7855 29.4281 51.9929 30.1841C51.1996 30.9401 50.2516 31.3139 49.1457 31.3139C48.0194 31.3139 47.2557 30.9486 46.8523 30.2096C46.4479 29.4706 46.4343 28.4003 46.8098 26.9988C47.1852 25.5973 47.7841 24.5015 48.608 23.7116C49.4319 22.9216 50.3952 22.5266 51.5011 22.5266C52.6054 22.5266 53.3614 22.9089 53.7436 23.6674C54.1343 24.4293 54.1428 25.5191 53.7606 26.9376L53.7538 26.9224ZM55.7516 19.4645L55.1808 21.5965C54.9345 20.832 54.4563 20.2204 53.7495 19.7618C53.0411 19.3116 52.1645 19.0822 51.1189 19.0822C49.8363 19.0822 48.6046 19.4135 47.4239 20.076C46.2432 20.7386 45.2069 21.6729 44.3235 22.8791C43.4401 24.0853 42.7946 25.4529 42.3784 26.9903C41.9706 28.5363 41.8857 29.8868 42.132 31.059C42.3869 32.2397 42.922 33.1401 43.7459 33.7687C44.5784 34.4057 45.6401 34.72 46.9397 34.72C47.9724 34.7253 48.9935 34.5019 49.9297 34.066C50.8553 33.6485 51.6786 33.0339 52.3421 32.2652L51.7475 34.4873H56.1559L60.1813 19.4721H55.7644L55.7516 19.4645ZM76.023 19.4645H63.2027L62.3066 22.8112H69.7662L59.9044 31.3308L59.0618 34.4737H72.2958L73.1919 31.127H65.1989L75.2118 22.4799L76.023 19.4645ZM87.3075 26.8969C86.9109 28.3749 86.3222 29.4859 85.545 30.2096C84.7678 30.9401 83.8266 31.3054 82.7215 31.3054C80.4111 31.3054 79.6517 29.8359 80.44 26.8969C80.8307 25.4359 81.4219 24.3376 82.2119 23.5977C83.0018 22.8553 83.9591 22.485 85.0846 22.485C86.1889 22.485 86.9346 22.8528 87.3186 23.5935C87.7025 24.3325 87.6991 25.4342 87.3075 26.8952V26.8969ZM89.8881 20.0293C88.873 19.3974 87.5777 19.0814 85.9977 19.0814C84.3983 19.0814 82.9177 19.3957 81.5553 20.0242C80.1985 20.6489 79.006 21.5813 78.0727 22.7475C77.1128 23.9282 76.4222 25.3127 75.9984 26.8926C75.5822 28.4666 75.5312 29.8486 75.854 31.0318C76.1768 32.2125 76.8563 33.1214 77.8756 33.75C78.9034 34.3837 80.2115 34.6988 81.8169 34.6988C83.3968 34.6988 84.8663 34.3811 86.2169 33.7491C87.5675 33.1138 88.7227 32.2117 89.6825 31.0225C90.6423 29.8384 91.3304 28.4573 91.7551 26.8773C92.1798 25.2974 92.2308 23.918 91.908 22.7322C91.5852 21.5515 90.9142 20.6426 89.9034 20.0098L89.8881 20.0293ZM105.626 23.4754L106.756 19.3897C106.374 19.1943 105.872 19.0924 105.244 19.0924C104.233 19.0924 103.265 19.3421 102.33 19.8484C101.527 20.2782 100.844 20.8847 100.266 21.6441L100.852 19.4441L99.5723 19.4492H96.4294L92.3777 34.4584H96.8482L98.9505 26.6123C99.2563 25.4715 99.8067 24.5737 100.601 23.9366C101.391 23.297 102.376 22.9768 103.565 22.9768C104.296 22.9768 104.975 23.1441 105.621 23.478L105.626 23.4754ZM118.065 26.9691C117.683 28.3706 117.105 29.4409 116.315 30.1799C115.525 30.9223 114.574 31.2926 113.47 31.2926C112.365 31.2926 111.609 30.9189 111.21 30.1714C110.802 29.4196 110.794 28.3366 111.176 26.913C111.558 25.4902 112.145 24.3987 112.951 23.6428C113.758 22.8808 114.71 22.5003 115.814 22.5003C116.901 22.5003 117.632 22.891 118.023 23.681C118.413 24.4709 118.422 25.5667 118.046 26.9682L118.065 26.9691ZM121.172 20.054C120.344 19.3914 119.286 19.0601 118.004 19.0601C116.88 19.0601 115.809 19.315 114.793 19.8297C113.778 20.3436 112.954 21.0444 112.321 21.9312L112.337 21.8292L113.087 19.4424H108.721L107.608 23.596L107.574 23.7404L102.987 40.8511H107.463L109.774 32.238C110.003 33.0042 110.47 33.6056 111.184 34.0405C111.897 34.4737 112.778 34.6886 113.826 34.6886C115.125 34.6886 116.365 34.3743 117.542 33.7457C118.722 33.1155 119.742 32.2083 120.608 31.0361C121.475 29.8639 122.118 28.5048 122.528 26.9674C122.944 25.4274 123.029 24.0539 122.791 22.8519C122.549 21.6483 122.013 20.7165 121.186 20.0574L121.172 20.054ZM136.021 26.9079C135.639 28.3264 135.053 29.4137 134.263 30.1612C133.473 30.9138 132.521 31.2884 131.417 31.2884C130.287 31.2884 129.523 30.9231 129.124 30.1841C128.716 29.4451 128.707 28.3749 129.081 26.9733C129.455 25.5718 130.051 24.476 130.875 23.6861C131.699 22.8961 132.663 22.502 133.769 22.502C134.873 22.502 135.621 22.8842 136.012 23.6402C136.402 24.3987 136.405 25.4885 136.024 26.9105L136.021 26.9079ZM138.017 19.4458L137.445 21.5778C137.199 20.8091 136.723 20.1975 136.018 19.7431C135.305 19.2895 134.43 19.0635 133.385 19.0635C132.102 19.0635 130.864 19.3948 129.682 20.0574C128.501 20.7199 127.465 21.6492 126.581 22.8519C125.698 24.0547 125.052 25.4257 124.636 26.9631C124.224 28.5065 124.143 29.8596 124.39 31.0369C124.639 32.2091 125.175 33.1146 126.004 33.7466C126.831 34.3752 127.898 34.6928 129.197 34.6928C130.242 34.6928 131.24 34.4754 132.187 34.0388C133.111 33.6194 133.932 33.004 134.594 32.2355L133.999 34.4593H138.408L142.432 19.45H138.024L138.017 19.4458ZM160.94 19.4509L160.943 19.4466H158.233C158.147 19.4466 158.07 19.4509 157.991 19.4526H156.585L155.863 20.4549L155.685 20.6927L155.608 20.8116L149.896 28.769L148.715 19.4509H144.037L146.407 33.6107L141.174 40.8562H145.838L147.103 39.0614C147.139 39.0087 147.171 38.9646 147.214 38.9085L148.692 36.8104L148.734 36.751L155.354 27.3649L160.934 19.4653L160.943 19.4602H160.94V19.4509Z" fill="black"/>
</svg>
