<svg width="143" height="49" viewBox="0 0 143 49" fill="none" xmlns="http://www.w3.org/2000/svg">
<path d="M53.2123 13.7157H45.3371C44.7982 13.7157 44.3399 14.1072 44.2559 14.6392L41.0708 34.8333C41.0074 35.2318 41.316 35.591 41.7202 35.591H45.4799C46.0188 35.591 46.4771 35.1995 46.5612 34.6664L47.4202 29.2197C47.5031 28.6865 47.9626 28.295 48.5003 28.295H50.9934C56.1809 28.295 59.1749 25.7847 59.9568 20.8102C60.3091 18.6338 59.9717 16.9238 58.9526 15.7262C57.8334 14.4112 55.8482 13.7157 53.2123 13.7157ZM54.1209 21.0912C53.6902 23.917 51.5311 23.917 49.4434 23.917H48.2551L49.0888 18.6396C49.1383 18.3206 49.4146 18.0857 49.7371 18.0857H50.2817C51.7039 18.0857 53.0454 18.0857 53.7386 18.8964C54.152 19.38 54.2786 20.0985 54.1209 21.0912Z" fill="#253B80"/>
<path d="M76.7529 21.0002H72.9817C72.6605 21.0002 72.3829 21.2351 72.3334 21.5541L72.1665 22.6088L71.9028 22.2265C71.0863 21.0416 69.2658 20.6455 67.4487 20.6455C63.2814 20.6455 59.722 23.8018 59.0288 28.2294C58.6684 30.438 59.1808 32.5499 60.4337 34.0227C61.5829 35.3768 63.2273 35.9411 65.1837 35.9411C68.5415 35.9411 70.4035 33.782 70.4035 33.782L70.2354 34.8299C70.172 35.2306 70.4806 35.5899 70.8825 35.5899H74.2795C74.8195 35.5899 75.2756 35.1984 75.3608 34.6652L77.3989 21.7579C77.4634 21.3606 77.156 21.0002 76.7529 21.0002ZM71.4963 28.3399C71.1324 30.4944 69.4224 31.9407 67.2414 31.9407C66.1463 31.9407 65.2712 31.5895 64.7093 30.9239C64.1519 30.263 63.94 29.3222 64.1174 28.2743C64.4571 26.1382 66.1959 24.6447 68.3434 24.6447C69.4143 24.6447 70.2849 25.0005 70.8583 25.6719C71.4329 26.3501 71.6609 27.2967 71.4963 28.3399Z" fill="#253B80"/>
<path d="M96.8376 21.0001H93.048C92.6864 21.0001 92.3467 21.1798 92.1417 21.4803L86.915 29.1793L84.6995 21.7808C84.5602 21.3179 84.133 21.0001 83.6493 21.0001H79.9253C79.4728 21.0001 79.1584 21.4423 79.3023 21.8684L83.4766 34.1182L79.5522 39.6581C79.2436 40.0945 79.5545 40.6945 80.0877 40.6945H83.8727C84.232 40.6945 84.5682 40.5195 84.772 40.2247L97.3765 22.0307C97.6782 21.5955 97.3685 21.0001 96.8376 21.0001Z" fill="#253B80"/>
<path d="M109.385 13.7157H101.508C100.971 13.7157 100.512 14.1072 100.428 14.6392L97.2431 34.8333C97.1798 35.2318 97.4884 35.591 97.8903 35.591H101.932C102.307 35.591 102.629 35.317 102.688 34.9439L103.591 29.2197C103.674 28.6865 104.134 28.295 104.672 28.295H107.163C112.352 28.295 115.345 25.7847 116.128 20.8102C116.481 18.6338 116.142 16.9238 115.123 15.7262C114.005 14.4112 112.021 13.7157 109.385 13.7157ZM110.293 21.0912C109.864 23.917 107.705 23.917 105.616 23.917H104.429L105.263 18.6396C105.313 18.3206 105.587 18.0857 105.911 18.0857H106.455C107.876 18.0857 109.219 18.0857 109.912 18.8964C110.325 19.38 110.451 20.0985 110.293 21.0912Z" fill="#179BD7"/>
<path d="M132.924 21.0002H129.155C128.832 21.0002 128.556 21.2351 128.508 21.5541L128.341 22.6088L128.076 22.2265C127.26 21.0416 125.44 20.6455 123.623 20.6455C119.456 20.6455 115.898 23.8018 115.205 28.2294C114.845 30.438 115.355 32.5499 116.608 34.0227C117.76 35.3768 119.402 35.9411 121.358 35.9411C124.716 35.9411 126.578 33.782 126.578 33.782L126.41 34.8299C126.347 35.2306 126.655 35.5899 127.059 35.5899H130.455C130.993 35.5899 131.451 35.1984 131.535 34.6652L133.575 21.7579C133.637 21.3606 133.328 21.0002 132.924 21.0002ZM127.667 28.3399C127.306 30.4944 125.594 31.9407 123.413 31.9407C122.32 31.9407 121.442 31.5895 120.88 30.9239C120.323 30.263 120.113 29.3222 120.288 28.2743C120.63 26.1382 122.367 24.6447 124.515 24.6447C125.585 24.6447 126.456 25.0005 127.029 25.6719C127.606 26.3501 127.834 27.2967 127.667 28.3399Z" fill="#179BD7"/>
<path d="M137.37 14.2695L134.138 34.8333C134.074 35.2317 134.383 35.591 134.785 35.591H138.034C138.574 35.591 139.033 35.1994 139.116 34.6663L142.303 14.4733C142.366 14.0749 142.058 13.7145 141.656 13.7145H138.017C137.696 13.7156 137.419 13.9505 137.37 14.2695Z" fill="#179BD7"/>
<path d="M8.36683 39.5154L8.96907 35.6901L7.62756 35.659H1.22168L5.67344 7.4319C5.68725 7.34668 5.73216 7.26723 5.7978 7.21081C5.86344 7.15438 5.9475 7.12329 6.03501 7.12329H16.8362C20.422 7.12329 22.8966 7.86947 24.1886 9.34226C24.7943 10.0332 25.1801 10.7552 25.3666 11.5497C25.5624 12.3834 25.5659 13.3795 25.3747 14.5943L25.3609 14.683V15.4614L25.9666 15.8046C26.4767 16.0752 26.882 16.3849 27.1929 16.7396C27.7111 17.3303 28.0462 18.0811 28.1879 18.9712C28.3341 19.8867 28.2857 20.976 28.0462 22.2093C27.7699 23.628 27.3231 24.8635 26.7197 25.8746C26.1646 26.8061 25.4576 27.5788 24.6182 28.1776C23.8167 28.7464 22.8644 29.1783 21.7877 29.4546C20.7445 29.7264 19.555 29.8634 18.2503 29.8634H17.4097C16.8086 29.8634 16.2248 30.0799 15.7665 30.468C15.307 30.8641 15.003 31.4053 14.9097 31.9972L14.8464 32.3415L13.7824 39.0836L13.734 39.3312C13.7214 39.4095 13.6995 39.4486 13.6673 39.4751C13.6385 39.4993 13.597 39.5154 13.5567 39.5154H8.36683Z" fill="#253B80"/>
<path d="M26.5401 14.7727C26.5079 14.9788 26.471 15.1896 26.4296 15.406C25.0052 22.7193 20.132 25.2457 13.908 25.2457H10.739C9.9779 25.2457 9.3365 25.7985 9.2179 26.5493L7.59541 36.8392L7.13596 39.756C7.0588 40.2488 7.4388 40.6933 7.93626 40.6933H13.5568C14.2224 40.6933 14.7878 40.2097 14.8926 39.5533L14.9478 39.2677L16.0061 32.5521L16.074 32.1836C16.1777 31.525 16.7442 31.0413 17.4098 31.0413H18.2504C23.6959 31.0413 27.9588 28.8304 29.2047 22.4326C29.7252 19.7599 29.4558 17.5283 28.0786 15.9588C27.6617 15.4855 27.1447 15.0928 26.5401 14.7727Z" fill="#179BD7"/>
<path d="M25.05 14.1786C24.8323 14.1153 24.6078 14.0577 24.3775 14.0059C24.146 13.9552 23.9088 13.9103 23.6647 13.8712C22.8103 13.733 21.8741 13.6674 20.8711 13.6674H12.4052C12.1967 13.6674 11.9987 13.7146 11.8213 13.7998C11.431 13.9875 11.1408 14.3571 11.0706 14.8097L9.26959 26.2166L9.21777 26.5494C9.33638 25.7986 9.97777 25.2458 10.7389 25.2458H13.9079C20.1318 25.2458 25.005 22.7183 26.4295 15.4061C26.4721 15.1897 26.5078 14.9789 26.54 14.7728C26.1796 14.5817 25.7892 14.4181 25.3689 14.2788C25.2653 14.2443 25.1582 14.2109 25.05 14.1786Z" fill="#222D65"/>
<path d="M11.0707 14.8096C11.1409 14.3571 11.4311 13.9874 11.8214 13.8009C11.9999 13.7157 12.1968 13.6685 12.4053 13.6685H20.8712C21.8742 13.6685 22.8103 13.7341 23.6648 13.8723C23.9089 13.9114 24.1461 13.9563 24.3776 14.007C24.6079 14.0588 24.8324 14.1164 25.05 14.1797C25.1583 14.212 25.2654 14.2454 25.3702 14.2788C25.7905 14.4181 26.1808 14.5828 26.5413 14.7728C26.965 12.0702 26.5378 10.23 25.0765 8.56379C23.4656 6.72943 20.558 5.94409 16.8374 5.94409H6.03623C5.27623 5.94409 4.62793 6.49682 4.51047 7.24876L0.0115023 35.766C-0.0771644 36.3303 0.358108 36.8392 0.926957 36.8392H7.59538L9.26968 26.2165L11.0707 14.8096Z" fill="#253B80"/>
</svg>
