<svg width="111" height="49" viewBox="0 0 111 49" fill="none" xmlns="http://www.w3.org/2000/svg">
<g clip-path="url(#clip0_1_3145)">
<path d="M15.2636 39.0104C13.5938 39.3036 11.8945 39.3915 10.1368 39.6257L4.77531 23.9227V40.2996C3.10546 40.4754 1.58205 40.7097 0 40.9441V10.9441H4.45325L10.5469 27.9658V10.9441H15.2636V39.0104ZM24.4922 21.9304C26.3087 21.9304 29.0919 21.8425 30.7618 21.8425V26.5299C28.6816 26.5299 26.2501 26.5299 24.4922 26.6178V33.5906C27.2462 33.4149 30.0001 33.1803 32.7832 33.0924V37.6038L19.8046 38.6294V10.9441H32.7832V15.6316H24.4922V21.9304ZM50.2148 15.6317H45.3516V37.1942C43.7695 37.1942 42.1875 37.1942 40.6643 37.2526V15.6317H35.801V10.9441H50.215L50.2148 15.6317ZM57.8319 21.6082H64.248V26.2956H57.8319V36.9305H53.232V10.9441H66.3281V15.6316H57.8319V21.6082ZM73.9452 32.8288C76.6113 32.8873 79.3065 33.0927 81.914 33.2389V37.8679C77.7246 37.604 73.5351 37.3407 69.2578 37.2526V10.9441H73.9452V32.8288ZM85.869 38.1902C87.3632 38.2782 88.9452 38.3661 90.4686 38.5416V10.9441H85.869V38.1902ZM111.006 10.9441L105.059 25.2117L111.006 40.9441C109.248 40.7097 107.49 40.3874 105.732 40.0944L102.363 31.4227L98.9359 39.3915C97.2363 39.0983 95.5957 39.0104 93.8968 38.776L99.9319 25.0358L94.4825 10.9441H99.5214L102.598 18.825L105.879 10.9441H111.006V10.9441Z" fill="#D81F26"/>
</g>
<defs>
<clipPath id="clip0_1_3145">
<rect width="111" height="48" fill="white" transform="translate(0 0.944092)"/>
</clipPath>
</defs>
</svg>
