<svg width="119" height="49" viewBox="0 0 119 49" fill="none" xmlns="http://www.w3.org/2000/svg">
<path d="M62.2436 18.0255C61.2705 17.2082 59.5969 16.7995 57.2228 16.7995H51.8906V33.2825H55.88V28.106H57.6704C59.8305 28.106 61.4262 27.6195 62.4382 26.6659C63.5863 25.5956 64.1507 24.175 64.1507 22.3846C64.1507 20.5554 63.5085 19.0958 62.2436 18.0255ZM57.5536 24.3696H55.8605V20.5164H57.3785C59.2272 20.5164 60.1418 21.1586 60.1418 22.4625C60.1613 23.7274 59.2856 24.3696 57.5536 24.3696ZM70.9618 16.78H66.8168V33.263H75.788V29.5266H70.9618V16.78ZM83.9419 16.78L77.4032 33.263H81.8791L82.7354 30.8694H88.4178L89.1962 33.263H93.7305L87.2502 16.78H83.9419ZM83.8835 27.5416L85.5961 21.8981L87.2891 27.5416H83.8835Z" fill="#111111"/>
<path d="M95.813 33.2634H99.9775V16.7804H95.813V33.2634ZM116.11 19.8747C115.585 19.1157 114.904 18.4735 114.125 17.9675C112.86 17.1697 111.148 16.7804 108.988 16.7804H103.5V33.2634H109.902C112.218 33.2634 114.086 32.5045 115.487 30.9865C116.889 29.4686 117.589 27.4642 117.589 24.9538C117.609 22.9689 117.103 21.2758 116.11 19.8747ZM109.455 29.527H107.684V20.5168H109.494C110.759 20.5168 111.751 20.9061 112.432 21.7039C113.113 22.5018 113.464 23.6305 113.464 25.09C113.444 28.048 112.121 29.527 109.455 29.527ZM18.1076 2.94409L4.62151 6.46643L0.904573 20.0303L5.57507 24.7981L0.846191 29.4881L4.34907 43.1104L17.7768 46.8662L22.5056 42.1763L27.1567 46.9441L40.6427 43.4218L44.3597 29.8578L39.7086 25.09L44.4375 20.4001L40.9346 6.77779L27.507 3.02194L22.7781 7.71189L18.1076 2.94409ZM9.8369 9.07412L16.94 7.20592L20.0536 10.3974L15.5193 14.8928L9.8369 9.07412ZM25.4247 10.4558L28.5773 7.32269L35.6414 9.30765L29.8617 15.0485C29.8811 15.029 25.4247 10.4558 25.4247 10.4558ZM5.1664 18.9211L7.13191 11.7791L12.8143 17.5978L8.28007 22.0931L5.1664 18.9211ZM32.5472 17.7729L38.327 12.0321L40.1757 19.213L37.0231 22.3461C37.0036 22.3461 32.5472 17.7729 32.5472 17.7729ZM18.1854 17.6562L22.7197 13.1608L27.1761 17.734L22.6419 22.2294L18.1854 17.6562ZM10.9461 24.8371L15.4804 20.3417L19.9369 24.9149L15.4026 29.4103L10.9461 24.8371ZM25.3079 24.9538L29.8422 20.4585L34.2986 25.0317L29.7644 29.527C29.7644 29.5465 25.3079 24.9538 25.3079 24.9538ZM5.08856 30.6752L8.24115 27.5421L12.6976 32.1153L6.9373 37.8561C6.91784 37.8561 5.08856 30.6752 5.08856 30.6752ZM18.0687 32.1542L22.6029 27.6588L27.0594 32.232L22.5251 36.7274L18.0687 32.1542ZM32.4304 32.2709L36.9647 27.7756L40.0784 30.9671L38.1323 38.1091C38.1129 38.1091 32.4304 32.2709 32.4304 32.2709ZM9.58392 40.5805L15.3442 34.8397L19.8006 39.4129L16.648 42.546L9.58392 40.5805ZM25.1912 39.4713L29.7254 34.9759L35.4079 40.7946L28.3048 42.6628L25.1912 39.4713Z" fill="#111111"/>
</svg>
