<svg width="171" height="49" viewBox="0 0 171 49" fill="none" xmlns="http://www.w3.org/2000/svg">
<path d="M3.53117 35.9463C2.90366 35.9476 2.28704 35.7824 1.74429 35.4675C1.20154 35.1525 0.752125 34.6992 0.441951 34.1537C0.136525 33.612 -0.015799 32.9975 0.00129579 32.3759C0.0183906 31.7543 0.20426 31.1491 0.538995 30.6251L6.90073 20.635C7.22634 20.0981 7.68862 19.6572 8.24036 19.3574C8.7921 19.0576 9.41353 18.9097 10.0412 18.9286C10.6683 18.9437 11.2802 19.125 11.8143 19.4542C12.3483 19.7834 12.7853 20.2486 13.0805 20.8021C13.6736 21.9235 13.5994 23.2727 12.8891 24.3253L6.53143 34.3154C6.20902 34.8178 5.76501 35.2307 5.24054 35.5158C4.71607 35.8009 4.12811 35.9489 3.53117 35.9463Z" fill="#F62B54"/>
<path d="M14.4427 35.9463C13.1596 35.9463 11.9789 35.2603 11.3589 34.1578C11.0541 33.6176 10.9022 33.0047 10.9193 32.3847C10.9364 31.7647 11.1219 31.1611 11.4559 30.6386L17.8055 20.6714C18.1264 20.127 18.587 19.6782 19.1397 19.3718C19.6923 19.0654 20.3169 18.9124 20.9487 18.9287C22.2426 18.957 23.4152 19.6808 24.0082 20.8129C24.5972 21.9451 24.511 23.3024 23.7791 24.3523L17.4308 34.3195C17.1094 34.8198 16.6672 35.231 16.145 35.5153C15.6227 35.7997 15.0373 35.9479 14.4427 35.9463Z" fill="#FFCC00"/>
<path d="M25.1112 36.0294C26.92 36.0294 28.3864 34.5938 28.3864 32.8229C28.3864 31.052 26.92 29.6165 25.1112 29.6165C23.3023 29.6165 21.8359 31.052 21.8359 32.8229C21.8359 34.5938 23.3023 36.0294 25.1112 36.0294Z" fill="#00CA72"/>
<path d="M167.396 29.8027C168.385 29.8027 168.977 30.5062 168.977 31.6586V35.6078H170.321V31.5683C170.321 29.6086 169.398 28.4724 167.662 28.4724C166.982 28.4724 165.904 28.6584 165.261 29.9078C165.112 29.5393 164.865 29.2181 164.548 28.9784C164.231 28.7387 163.855 28.5895 163.459 28.5465C163.21 28.5009 162.957 28.486 162.704 28.502C162.152 28.5465 161.168 28.8902 160.8 29.6692V28.622H159.455V35.6078H160.8V31.8379C160.8 30.3715 161.76 29.8027 162.721 29.8027C163.621 29.8027 164.213 30.4914 164.213 31.6438V35.6078H165.55V31.8379C165.55 30.6707 166.251 29.7892 167.396 29.8027ZM154.518 34.4405C155.132 34.454 155.725 34.2087 156.155 33.7639C156.587 33.3192 156.816 32.714 156.793 32.0926C156.793 30.6855 155.758 29.8027 154.518 29.8027C153.276 29.8027 152.243 30.6855 152.243 32.0926C152.218 32.7126 152.447 33.3165 152.876 33.7599C153.305 34.2047 153.895 34.4513 154.507 34.4405H154.518ZM154.518 35.7506C152.553 35.7506 150.912 34.299 150.912 32.0845C150.912 29.8701 152.553 28.4643 154.518 28.4643C156.483 28.4643 158.137 29.8701 158.137 32.0845C158.137 34.299 156.473 35.7574 154.508 35.7574L154.518 35.7506ZM143.991 32.0845L143.978 32.0926C143.978 29.8782 145.661 28.4724 147.64 28.4643C148.137 28.4547 148.63 28.5495 149.088 28.7427C149.546 28.9359 149.959 29.223 150.299 29.5857L149.28 30.4537C149.064 30.2412 148.807 30.0736 148.526 29.9607C148.244 29.8478 147.943 29.7918 147.64 29.7959C146.4 29.7959 145.321 30.6788 145.321 32.0845C145.321 33.0348 145.886 33.8906 146.753 34.2545C147.62 34.6185 148.617 34.4163 149.28 33.7451L150.314 34.6131C149.973 34.9794 149.558 35.27 149.098 35.466C148.637 35.662 148.14 35.7589 147.64 35.7506C145.676 35.7506 143.991 34.299 143.991 32.0845ZM139.688 34.2667C139.686 34.1445 139.709 34.0233 139.754 33.91C139.8 33.7966 139.867 33.6933 139.952 33.6059C140.038 33.5185 140.139 33.4488 140.252 33.4008C140.364 33.3528 140.485 33.3273 140.607 33.3259C140.729 33.3273 140.85 33.3528 140.962 33.4008C141.074 33.4488 141.176 33.5185 141.261 33.6059C141.347 33.6933 141.414 33.7966 141.459 33.91C141.505 34.0233 141.527 34.1445 141.526 34.2667C141.514 34.5032 141.412 34.7263 141.241 34.8903C141.071 35.0544 140.844 35.1471 140.607 35.1495C140.37 35.1471 140.143 35.0544 139.972 34.8903C139.801 34.7263 139.7 34.5032 139.688 34.2667Z" fill="#333333"/>
<path fill-rule="evenodd" clip-rule="evenodd" d="M143.364 19.7413H138.578L135.223 28.3903L131.886 19.7413H127.1L132.918 33.4083L129.299 42.4441H134.05L143.364 19.7413ZM114.256 27.343C114.256 29.5265 116.165 30.9633 118.04 30.9633C119.882 30.9633 121.692 29.6263 121.692 27.3417C121.692 25.0571 119.882 23.7187 118.04 23.7187C116.165 23.7187 114.256 25.1569 114.256 27.3417V27.343ZM121.692 34.9744V33.2452C120.722 34.7143 118.457 35.2696 117.296 35.2696C113.449 35.2696 109.601 32.237 109.601 27.3417C109.601 22.4477 113.448 19.4151 117.296 19.4151C118.265 19.4151 120.529 19.7386 121.692 21.4369V19.7467H126.154V34.9771L121.692 34.9758V34.9744ZM108.331 34.9744H103.87V33.0821C103.125 34.4838 101.317 35.3006 99.441 35.3006C95.5606 35.3006 92.1331 32.202 92.1331 27.4037C92.1331 22.5151 95.5606 19.4124 99.441 19.4124C101.314 19.4124 103.127 20.1942 103.87 21.5973V11.4441H108.331V34.9744ZM103.773 27.308C103.773 25.0248 102.124 23.6864 100.282 23.6864C98.3735 23.6864 96.7884 25.1218 96.7884 27.308C96.7884 29.5643 98.3735 30.993 100.281 30.993C102.158 30.9957 103.773 29.4942 103.773 27.308ZM81.1024 26.9144C81.1024 24.5989 82.2993 23.8158 83.883 23.8158C85.402 23.8158 86.5018 24.8267 86.5018 26.8484V34.9717H90.9955V25.8712C90.9955 21.5339 88.8605 19.4124 85.4654 19.4124C83.6876 19.4124 81.9098 20.4233 81.1011 21.9571V19.7413H76.6101V34.9717H81.1024V26.9144ZM67.4854 35.2332C63.2181 35.2332 59.6585 32.1022 59.6585 27.3067C59.6585 22.5084 63.2141 19.4084 67.4854 19.4084C71.7566 19.4084 75.3432 22.5084 75.3432 27.3067C75.3432 32.1049 71.7526 35.2346 67.4854 35.2346V35.2332ZM67.4854 30.7989C69.3588 30.7989 70.9129 29.4268 70.9129 27.308C70.9129 25.2526 69.3602 23.8495 67.4854 23.8495C67.0339 23.8424 66.5858 23.9273 66.1682 24.099C65.7507 24.2707 65.3724 24.5256 65.0566 24.8482C64.7389 25.1725 64.4896 25.5574 64.3236 25.98C64.1576 26.4025 64.0782 26.8542 64.0902 27.308C64.0915 29.4295 65.6429 30.7989 67.4854 30.7989ZM51.6026 23.8171C52.9275 23.8171 54.092 24.8617 54.092 26.8497V34.9744H58.5533V26.3241C58.5533 21.7253 56.3173 19.4097 52.7334 19.4097C51.6686 19.4097 49.663 19.7332 48.2074 22.1162C47.3664 20.3546 45.7503 19.4407 43.362 19.4407C42.5327 19.4365 41.7199 19.6712 41.0205 20.1167C40.3211 20.5623 39.7649 21.1998 39.4182 21.9531V19.7427H34.9219V34.9731H39.4142V26.9144C39.4142 24.5989 40.6757 23.8158 42.033 23.8158C43.3269 23.8158 44.4887 24.8267 44.5224 26.7514V34.9731H49.0161V26.9144C49.0161 24.7 50.1806 23.8185 51.6026 23.8185V23.8171Z" fill="#333333"/>
</svg>
