<svg width="165" height="49" viewBox="0 0 165 49" fill="none" xmlns="http://www.w3.org/2000/svg">
<g clip-path="url(#clip0_1_3137)">
<path d="M164.358 22.778V19.8963H160.779V15.4163L160.659 15.4534L157.298 16.4818L157.231 16.502V19.8964H151.926V18.0054C151.926 17.1249 152.123 16.4511 152.511 16.0017C152.896 15.5577 153.448 15.332 154.15 15.332C154.656 15.332 155.179 15.451 155.706 15.6858L155.838 15.7448V12.71L155.776 12.6871C155.284 12.5106 154.616 12.4216 153.788 12.4216C152.744 12.4216 151.796 12.6488 150.969 13.0989C150.141 13.5497 149.49 14.1933 149.034 15.0115C148.58 15.8288 148.349 16.7727 148.349 17.8173V19.8963H145.857V22.778H148.349V34.918H151.926V22.778H157.231V30.4927C157.231 33.67 158.73 35.2802 161.686 35.2802C162.171 35.2802 162.683 35.2233 163.204 35.1118C163.736 34.9974 164.098 34.8831 164.311 34.7611L164.358 34.7332V31.8248L164.212 31.9211C164.018 32.0504 163.776 32.1561 163.493 32.2347C163.208 32.3148 162.971 32.3549 162.786 32.3549C162.094 32.3549 161.582 32.1683 161.264 31.8001C160.942 31.4286 160.779 30.7788 160.779 29.87V22.778H164.358ZM137.869 32.3554C136.571 32.3554 135.547 31.9249 134.826 31.0768C134.1 30.2245 133.732 29.0094 133.732 27.4655C133.732 25.8727 134.1 24.626 134.826 23.7587C135.548 22.897 136.562 22.4597 137.84 22.4597C139.08 22.4597 140.068 22.8773 140.775 23.7017C141.486 24.5304 141.846 25.7671 141.846 27.3785C141.846 29.0097 141.507 30.2627 140.838 31.1009C140.174 31.9328 139.175 32.3554 137.869 32.3554ZM138.028 19.5344C135.551 19.5344 133.584 20.2602 132.181 21.6917C130.779 23.1233 130.068 25.1045 130.068 27.5808C130.068 29.9327 130.762 31.8245 132.131 33.2028C133.499 34.5815 135.362 35.2799 137.666 35.2799C140.067 35.2799 141.995 34.5439 143.397 33.0926C144.799 31.6429 145.51 29.6804 145.51 27.262C145.51 24.8733 144.843 22.9674 143.528 21.5983C142.212 20.2287 140.362 19.5344 138.028 19.5344ZM124.301 19.5344C122.616 19.5344 121.222 19.9654 120.158 20.8151C119.086 21.67 118.543 22.7911 118.543 24.1478C118.543 24.853 118.66 25.4794 118.891 26.0107C119.123 26.5438 119.483 27.0132 119.96 27.407C120.434 27.7978 121.165 28.207 122.134 28.6234C122.949 28.9587 123.557 29.2423 123.943 29.4658C124.32 29.6848 124.588 29.905 124.739 30.1194C124.886 30.3293 124.96 30.6165 124.96 30.971C124.96 31.9802 124.204 32.4712 122.649 32.4712C122.072 32.4712 121.415 32.3508 120.694 32.1133C119.978 31.8795 119.303 31.537 118.691 31.0979L118.543 30.9914V34.4353L118.597 34.4607C119.103 34.6943 119.741 34.8914 120.494 35.0464C121.244 35.2016 121.926 35.2805 122.519 35.2805C124.347 35.2805 125.82 34.8474 126.894 33.9926C127.975 33.1319 128.523 31.9843 128.523 30.5807C128.523 29.5682 128.228 28.6998 127.647 27.9996C127.069 27.305 126.067 26.6673 124.669 26.1036C123.555 25.6566 122.842 25.2856 122.548 25.0007C122.264 24.7256 122.12 24.3364 122.12 23.8436C122.12 23.4068 122.298 23.0568 122.663 22.7734C123.031 22.4885 123.543 22.3436 124.185 22.3436C124.781 22.3436 125.391 22.4378 125.997 22.6223C126.603 22.8068 127.136 23.0539 127.58 23.3562L127.726 23.4561V20.1892L127.67 20.1651C127.26 19.9893 126.719 19.8389 126.063 19.7168C125.409 19.5956 124.817 19.5344 124.301 19.5344ZM109.218 32.3554C107.92 32.3554 106.896 31.9249 106.175 31.0768C105.449 30.2245 105.081 29.0097 105.081 27.4655C105.081 25.8727 105.449 24.626 106.175 23.7587C106.897 22.897 107.91 22.4597 109.189 22.4597C110.429 22.4597 111.416 22.8773 112.124 23.7017C112.835 24.5304 113.195 25.7671 113.195 27.3785C113.195 29.0097 112.856 30.2627 112.187 31.1009C111.523 31.9328 110.524 32.3554 109.218 32.3554ZM109.377 19.5344C106.9 19.5344 104.932 20.2602 103.53 21.6917C102.128 23.1233 101.417 25.1045 101.417 27.5808C101.417 29.9337 102.111 31.8245 103.48 33.2028C104.848 34.5815 106.711 35.2799 109.015 35.2799C111.416 35.2799 113.344 34.5439 114.747 33.0926C116.148 31.6429 116.859 29.6804 116.859 27.262C116.859 24.8733 116.192 22.9674 114.877 21.5983C113.561 20.2287 111.71 19.5344 109.377 19.5344ZM95.987 22.4977V19.8963H92.4536V34.9177H95.987V27.2336C95.987 25.927 96.2833 24.8536 96.8679 24.0429C97.445 23.2418 98.2141 22.8358 99.1531 22.8358C99.4714 22.8358 99.8287 22.8883 100.216 22.9921C100.599 23.0953 100.876 23.2074 101.04 23.3253L101.188 23.4329V19.8706L101.131 19.846C100.802 19.7062 100.336 19.6357 99.7472 19.6357C98.8592 19.6357 98.0646 19.921 97.384 20.4828C96.7866 20.9765 96.3548 21.6535 96.0246 22.4977H95.987ZM86.1258 19.5344C84.5047 19.5344 83.0588 19.882 81.8289 20.5672C80.5965 21.2541 79.6434 22.2346 78.9949 23.4814C78.3493 24.7252 78.0215 26.1781 78.0215 27.7984C78.0215 29.2177 78.3393 30.5202 78.9675 31.6681C79.596 32.8179 80.4855 33.7174 81.6116 34.3413C82.7361 34.9644 84.0357 35.2803 85.4746 35.2803C87.1538 35.2803 88.5876 34.9446 89.7371 34.2825L89.7835 34.2559V31.0187L89.635 31.1271C89.1143 31.5064 88.5324 31.8091 87.9063 32.0273C87.2818 32.2452 86.7124 32.3554 86.2131 32.3554C84.8266 32.3554 83.7136 31.9215 82.9057 31.0662C82.096 30.2098 81.6855 29.0072 81.6855 27.4939C81.6855 25.9711 82.1136 24.7376 82.9573 23.8274C83.7985 22.92 84.9136 22.4597 86.2714 22.4597C87.4328 22.4597 88.5646 22.8529 89.6353 23.6296L89.7835 23.7373V20.3263L89.7356 20.2994C89.3327 20.0738 88.7832 19.8875 88.1009 19.7463C87.4216 19.6054 86.7571 19.5344 86.1258 19.5344ZM75.588 19.8964H72.0545V34.9177H75.588V19.8964ZM73.8574 13.4973C73.2758 13.4973 72.7686 13.6952 72.3518 14.0876C71.9334 14.481 71.7211 14.9763 71.7211 15.5609C71.7211 16.1363 71.9308 16.6226 72.3453 17.0055C72.7571 17.3874 73.266 17.5809 73.8575 17.5809C74.4489 17.5809 74.9596 17.3874 75.3763 17.0062C75.7958 16.6226 76.0085 16.1364 76.0085 15.5609C76.0085 14.9968 75.8015 14.5065 75.3936 14.1034C74.9861 13.7011 74.469 13.4973 73.8574 13.4973ZM65.0411 18.7881V34.9177H68.6472V13.9571H63.6562L57.3124 29.526L51.1561 13.9571H45.9619V34.9175H49.3507V18.7865H49.467L55.9679 34.9177H58.5253L64.9248 18.7881H65.0411Z" fill="#706D6E"/>
<path d="M17.1225 23.5754H0.5V6.95288H17.1225V23.5754Z" fill="#F1511B"/>
<path d="M35.4757 23.5754H18.8535V6.95288H35.4757V23.5754Z" fill="#80CC28"/>
<path d="M17.122 41.9351H0.5V25.3127H17.122V41.9351Z" fill="#00ADEF"/>
<path d="M35.4757 41.9351H18.8535V25.3127H35.4757V41.9351Z" fill="#FBBC09"/>
</g>
<defs>
<clipPath id="clip0_1_3137">
<rect width="164" height="48" fill="white" transform="translate(0.5 0.944092)"/>
</clipPath>
</defs>
</svg>
