<svg width="115" height="49" viewBox="0 0 115 49" fill="none" xmlns="http://www.w3.org/2000/svg">
<g clip-path="url(#clip0_1_3191)">
<path d="M31.7904 32.0279C28.607 32.0279 26.4996 29.6164 25.9117 28.6823C26.666 22.773 28.8733 20.9047 31.7904 20.9047C34.6744 20.9047 36.915 23.1641 36.915 26.4662C36.915 29.7684 34.6744 32.0279 31.7904 32.0279ZM31.7904 17.2766C26.5995 17.2766 23.6933 20.5897 22.8614 24.0005C21.9186 22.2625 21.2198 19.9379 20.6763 17.7763H13.4998V26.5206C13.4998 29.6925 12.0246 32.0388 9.14064 32.0388C6.25673 32.0388 4.60403 29.6925 4.60403 26.5206L4.6373 17.7763H0.5V26.5206C0.5 29.0733 1.34299 31.3871 2.88477 33.0381C4.47093 34.7435 6.63386 35.6342 9.14064 35.6342C14.132 35.6342 17.615 31.8867 17.615 26.5206V20.644C18.1362 22.5775 19.3786 26.2925 21.7522 29.5513L19.5339 41.9237H23.7377L25.2018 33.1576C25.6788 33.5486 26.189 33.8962 26.7325 34.2113C28.1411 35.0803 29.7495 35.5691 31.4133 35.6233C31.4133 35.6233 31.6684 35.6342 31.8015 35.6342C36.9482 35.6342 41.0411 31.7347 41.0411 26.4662C41.0411 21.198 36.9371 17.2766 31.7904 17.2766Z" fill="#14A800"/>
<path d="M91.2324 19.6455V17.7772H87.1729V35.0811H91.288V28.3029C91.288 24.1318 91.6762 21.1337 97.3885 21.5248V17.5708C94.7264 17.3753 92.6522 17.9184 91.2324 19.6455Z" fill="#14A800"/>
<path d="M62.6607 17.7776L59.677 29.8784L56.4935 17.7776H51.2582L48.0637 29.8784L45.091 17.7776H40.9204L45.4904 35.0925H50.4374L53.8759 22.7961L57.2811 35.0925H62.2281L67.0643 17.7776H62.6607Z" fill="#14A800"/>
<path d="M76.1263 32.0388C73.198 32.0388 71.0018 29.7794 71.0018 26.4662C71.0018 23.1532 73.2092 20.9047 76.1263 20.9047C79.0103 20.9047 81.2509 23.1641 81.2509 26.4662C81.2509 29.7684 79.0103 32.0388 76.1263 32.0388ZM76.1263 17.2766C70.9463 17.2766 66.8867 21.2088 66.8867 26.4662C66.8867 31.7237 70.9463 35.6233 76.1263 35.6233C81.273 35.6233 85.366 31.7237 85.366 26.4662C85.366 21.2088 81.2841 17.2766 76.1263 17.2766Z" fill="#14A800"/>
<path d="M103.29 26.5753H104.244L109.99 35.0914H114.637L108.027 25.6519C111.232 24.4245 113.384 21.22 113.384 17.7766H109.28C109.28 21.5133 106.274 22.9254 103.29 22.9254V10.9441H99.1641V35.0914H103.279L103.29 26.5753Z" fill="#14A800"/>
</g>
<defs>
<clipPath id="clip0_1_3191">
<rect width="114" height="48" fill="white" transform="translate(0.5 0.944092)"/>
</clipPath>
</defs>
</svg>
