<svg width="221" height="49" viewBox="0 0 221 49" fill="none" xmlns="http://www.w3.org/2000/svg">
<g clip-path="url(#clip0_1_3199)">
<path fill-rule="evenodd" clip-rule="evenodd" d="M8.64007 27.3777L20.9327 14.9346C21.7679 14.0892 22.8791 13.6243 24.0636 13.6243C25.2473 13.6243 26.3585 14.0887 27.1928 14.9341L28.1506 15.9036L30.0665 13.9642L29.1087 12.9948C27.7633 11.6329 25.9717 10.8828 24.0628 10.8828C22.1547 10.8833 20.3627 11.6333 19.0172 12.9957L6.72461 25.4384L8.64007 27.3777Z" fill="black"/>
<path fill-rule="evenodd" clip-rule="evenodd" d="M25.0867 19.0677L23.1618 17.1312L10.8114 29.5559C9.0771 31.3007 6.25516 31.3011 4.52125 29.5568C2.7869 27.8121 2.7869 24.9728 4.52125 23.2281L15.1784 12.5076L13.2535 10.5715L2.59673 21.2921C-0.19891 24.1044 -0.19891 28.6809 2.59673 31.4929C3.94854 32.8528 5.74862 33.6021 7.66569 33.6021C9.5832 33.6021 11.3842 32.8523 12.736 31.4924L25.0867 19.0677Z" fill="black"/>
<path fill-rule="evenodd" clip-rule="evenodd" d="M37.306 21.3947C35.9546 20.0348 34.1546 19.2858 32.2366 19.2858C30.3191 19.2863 28.5181 20.0352 27.1663 21.3956L14.8163 33.8201L16.7404 35.7566L29.0913 23.3317C30.8261 21.5869 33.6476 21.5873 35.3815 23.3312C36.2202 24.1749 36.682 25.2982 36.682 26.495C36.682 27.6922 36.2202 28.8159 35.3815 29.6596L24.7247 40.3803L26.6497 42.3164L37.306 31.5961C40.1021 28.7837 40.1021 24.2071 37.306 21.3947Z" fill="black"/>
<path fill-rule="evenodd" clip-rule="evenodd" d="M31.2633 25.5103L18.9709 37.9534C17.2444 39.7003 14.4362 39.7011 12.7105 37.9538L11.7528 36.9844L9.83691 38.9237L10.7946 39.8932C12.14 41.2551 13.9316 42.0051 15.8409 42.0051C17.7489 42.0047 19.5405 41.2547 20.8864 39.8923L33.1788 27.4496L31.2633 25.5103Z" fill="black"/>
<path fill-rule="evenodd" clip-rule="evenodd" d="M50.7548 29.684C50.9134 30.4779 51.285 31.0995 51.8687 31.5474C52.452 31.9961 53.2196 32.2201 54.1714 32.2201C55.1079 32.2201 55.8319 31.9997 56.3438 31.5585C56.8556 31.1177 57.1113 30.537 57.1113 29.8164C57.1113 29.4636 57.0429 29.1659 56.9062 28.9233C56.7689 28.6807 56.5781 28.475 56.3333 28.3057C56.0876 28.1373 55.7853 27.9934 55.4251 27.8761C55.0648 27.7583 54.661 27.6335 54.2141 27.5011L53.047 27.1705C52.3549 26.9795 51.735 26.748 51.1874 26.4756C50.6394 26.2037 50.1711 25.8838 49.7821 25.5164C49.3931 25.1489 49.0973 24.7264 48.8956 24.2483C48.6939 23.7707 48.5929 23.2153 48.5929 22.5835C48.5929 21.9219 48.7227 21.3119 48.9823 20.7529C49.2415 20.1949 49.6092 19.7164 50.0849 19.3196C50.5606 18.9228 51.1369 18.6105 51.8147 18.3821C52.4916 18.1551 53.2553 18.0409 54.106 18.0409C55.706 18.0409 56.9741 18.4266 57.9116 19.1983C58.8481 19.9705 59.3957 21.0031 59.5547 22.2969L56.9602 22.5173C56.8012 21.8557 56.4845 21.3412 56.0088 20.9738C55.5331 20.6063 54.8701 20.4224 54.0198 20.4224C53.227 20.4224 52.6071 20.6099 52.1606 20.9849C51.7132 21.3599 51.4897 21.8415 51.4897 22.4293C51.4897 22.7674 51.5551 23.05 51.6849 23.2779C51.8147 23.5063 52.0016 23.7045 52.2468 23.8733C52.4916 24.0426 52.7909 24.1932 53.1438 24.3252C53.497 24.4576 53.8969 24.598 54.3439 24.7446L55.4469 25.0974C56.1382 25.3178 56.762 25.5492 57.3165 25.7918C57.8715 26.0344 58.3437 26.325 58.7327 26.6631C59.1221 27.0012 59.4214 27.4056 59.6301 27.8761C59.8392 28.3466 59.9437 28.9273 59.9437 29.6182C59.9437 30.3535 59.7995 31.0262 59.5116 31.6358C59.2228 32.2463 58.8198 32.7643 58.3006 33.1904C57.7818 33.617 57.1658 33.948 56.4518 34.1826C55.7383 34.4176 54.9494 34.5358 54.0847 34.5358C52.4847 34.5358 51.1512 34.1537 50.0849 33.389C49.018 32.6244 48.3624 31.4705 48.1172 29.9265L50.7548 29.684Z" fill="black"/>
<path fill-rule="evenodd" clip-rule="evenodd" d="M71.1045 20.7227C70.3268 20.7227 69.6313 20.8691 69.0191 21.161C68.4064 21.4533 67.8877 21.8584 67.4632 22.3767C67.0377 22.8955 66.7133 23.5094 66.4899 24.217C66.2669 24.9259 66.1554 25.6963 66.1554 26.5287C66.1554 27.3614 66.2704 28.1354 66.5012 28.8514C66.7311 29.567 67.0595 30.1875 67.4845 30.7138C67.9091 31.2392 68.4281 31.6518 69.0408 31.9517C69.6526 32.2506 70.3481 32.4001 71.1263 32.4001C71.9044 32.4001 72.5994 32.2581 73.2121 31.9733C73.8239 31.6885 74.343 31.2905 74.768 30.7788C75.193 30.268 75.5209 29.6506 75.7513 28.9279C75.9817 28.2048 76.0971 27.4123 76.0971 26.5508C76.0971 25.7034 75.9817 24.9219 75.7513 24.2064C75.5209 23.4912 75.193 22.8774 74.768 22.3661C74.343 21.8553 73.8205 21.4533 73.2008 21.161C72.5816 20.8691 71.8827 20.7227 71.1045 20.7227ZM71.1263 18.3522C72.2933 18.3522 73.3597 18.5534 74.3252 18.9559C75.2901 19.3583 76.1114 19.9213 76.789 20.6457C77.4657 21.3706 77.9913 22.2374 78.3667 23.2471C78.7412 24.2568 78.9284 25.3615 78.9284 26.5614C78.9284 27.8059 78.7303 28.9288 78.3345 29.931C77.9373 30.9336 77.3725 31.8004 76.6375 32.5319L78.7124 35.0125V35.7807H76.0757L74.6274 33.9812C74.1231 34.2151 73.5823 34.3978 73.0066 34.5296C72.43 34.6614 71.8104 34.7273 71.148 34.7273C69.9518 34.7273 68.8749 34.5256 67.9169 34.1236C66.9584 33.7211 66.1441 33.1577 65.4744 32.4333C64.8042 31.7089 64.2856 30.846 63.9185 29.843C63.551 28.8408 63.3672 27.7471 63.3672 26.5614C63.3672 25.3615 63.551 24.2608 63.9185 23.2577C64.2856 22.256 64.8077 21.3923 65.4853 20.6678C66.162 19.9434 66.9798 19.3764 67.9382 18.9665C68.8967 18.5574 69.9592 18.3522 71.1263 18.3522Z" fill="black"/>
<path fill-rule="evenodd" clip-rule="evenodd" d="M89.5101 32.2648C90.6158 32.2648 91.4772 31.9161 92.0947 31.2177C92.7118 30.5194 93.0208 29.45 93.0208 28.0093V18.3522H95.7346V28.0755C95.7346 29.2221 95.591 30.2031 95.3037 31.0191C95.016 31.8348 94.6073 32.5038 94.0761 33.0258C93.545 33.5478 92.8914 33.9299 92.1164 34.1724C91.341 34.415 90.4722 34.5358 89.5101 34.5358C88.5333 34.5358 87.6611 34.415 86.8935 34.1724C86.1249 33.9299 85.4753 33.5478 84.9442 33.0258C84.413 32.5038 84.0038 31.8348 83.7161 31.0191C83.4288 30.2031 83.2856 29.2221 83.2856 28.0755V18.3522H85.9995V28.0093C85.9995 29.45 86.3081 30.5194 86.9256 31.2177C87.5431 31.9161 88.4045 32.2648 89.5101 32.2648Z" fill="black"/>
<path fill-rule="evenodd" clip-rule="evenodd" d="M103.51 27.4409H108.703L107.848 24.9702C107.512 24.0025 107.242 23.2148 107.037 22.6082C106.833 22.0012 106.65 21.4668 106.49 21.0043H105.811C105.723 21.2497 105.635 21.4956 105.547 21.741C105.46 21.9868 105.361 22.2615 105.252 22.5646C105.142 22.868 105.022 23.2148 104.89 23.6051C104.759 23.9947 104.598 24.4501 104.408 24.9702L103.51 27.4409ZM98.5356 33.4661L104.123 18.6633H108.265L113.786 33.4661V34.2246H111.069L109.491 29.7814H102.677L101.1 34.2246H98.5356V33.4661Z" fill="black"/>
<path fill-rule="evenodd" clip-rule="evenodd" d="M119.9 25.7721H122.266C123.307 25.7721 124.128 25.5821 124.728 25.2031C125.329 24.8236 125.63 24.2044 125.63 23.3446C125.63 22.4712 125.325 21.8629 124.718 21.5192C124.11 21.176 123.293 21.004 122.266 21.004H119.9V25.7721ZM129.036 34.2246H126.41L121.658 28.1127H119.9V34.2246H117.209V18.6633H122.266C123.061 18.6633 123.817 18.7175 124.533 18.8258C125.249 18.9341 125.897 19.1834 126.476 19.5734C127.705 20.3821 128.32 21.6031 128.32 23.235C128.32 23.9433 128.215 24.5607 128.005 25.0883C127.795 25.6153 127.517 26.0629 127.17 26.4315C126.822 26.8001 126.421 27.0996 125.966 27.3302C125.51 27.5616 125.036 27.735 124.544 27.8503L129.036 33.4656V34.2246Z" fill="black"/>
<path fill-rule="evenodd" clip-rule="evenodd" d="M132.459 18.6633H142.577V21.0471H135.135V25.1217H142.055V27.4623H135.135V31.8403H142.729V34.2246H132.459V18.6633Z" fill="black"/>
<path fill-rule="evenodd" clip-rule="evenodd" d="M148.791 29.684C148.949 30.4779 149.321 31.0995 149.905 31.5474C150.488 31.9961 151.256 32.2201 152.207 32.2201C153.144 32.2201 153.868 31.9997 154.38 31.5585C154.891 31.1177 155.148 30.537 155.148 29.8164C155.148 29.4636 155.079 29.1659 154.942 28.9233C154.805 28.6807 154.614 28.475 154.369 28.3057C154.124 28.1373 153.821 27.9934 153.461 27.8761C153.101 27.7583 152.697 27.6335 152.25 27.5011L151.083 27.1705C150.391 26.9795 149.771 26.748 149.223 26.4756C148.675 26.2037 148.207 25.8838 147.819 25.5164C147.429 25.1489 147.133 24.7264 146.932 24.2483C146.73 23.7707 146.629 23.2153 146.629 22.5835C146.629 21.9219 146.759 21.3119 147.018 20.7529C147.278 20.1949 147.645 19.7164 148.121 19.3196C148.597 18.9228 149.173 18.6105 149.851 18.3821C150.528 18.1551 151.292 18.0409 152.142 18.0409C153.742 18.0409 155.01 18.4266 155.947 19.1983C156.884 19.9705 157.432 21.0031 157.59 22.2969L154.996 22.5173C154.837 21.8557 154.52 21.3412 154.045 20.9738C153.569 20.6063 152.906 20.4224 152.056 20.4224C151.263 20.4224 150.643 20.6099 150.197 20.9849C149.75 21.3599 149.526 21.8415 149.526 22.4293C149.526 22.7674 149.591 23.05 149.721 23.2779C149.851 23.5063 150.038 23.7045 150.283 23.8733C150.528 24.0426 150.827 24.1932 151.18 24.3252C151.533 24.4576 151.933 24.598 152.38 24.7446L153.483 25.0974C154.174 25.3178 154.798 25.5492 155.353 25.7918C155.907 26.0344 156.38 26.325 156.768 26.6631C157.158 27.0012 157.457 27.4056 157.666 27.8761C157.875 28.3466 157.98 28.9273 157.98 29.6182C157.98 30.3535 157.836 31.0262 157.547 31.6358C157.259 32.2463 156.856 32.7643 156.336 33.1904C155.818 33.617 155.202 33.948 154.488 34.1826C153.774 34.4176 152.985 34.5358 152.121 34.5358C150.521 34.5358 149.187 34.1537 148.121 33.389C147.054 32.6244 146.399 31.4705 146.153 29.9265L148.791 29.684Z" fill="black"/>
<path fill-rule="evenodd" clip-rule="evenodd" d="M164.783 25.902H167.43C167.916 25.902 168.36 25.8627 168.765 25.7837C169.169 25.7051 169.522 25.5728 169.824 25.3863C170.125 25.2003 170.361 24.9497 170.53 24.6344C170.699 24.3195 170.783 23.9326 170.783 23.4741C170.783 23.0017 170.699 22.6047 170.53 22.2825C170.361 21.9602 170.129 21.7061 169.835 21.5196C169.54 21.3331 169.191 21.2008 168.787 21.1222C168.382 21.0436 167.945 21.0039 167.475 21.0039H164.783V25.902ZM162.025 18.6633H167.805C168.879 18.6633 169.78 18.786 170.508 19.0319C171.236 19.2773 171.824 19.6166 172.273 20.0506C172.721 20.4838 173.045 20.993 173.243 21.5785C173.441 22.1633 173.541 22.7956 173.541 23.4746C173.541 24.2842 173.405 24.9881 173.133 25.5876C172.861 26.1872 172.467 26.6819 171.953 27.0723C171.437 27.4623 170.813 27.7548 170.077 27.95C169.342 28.1452 168.511 28.2426 167.585 28.2426H164.783V34.2246H162.025V18.6633Z" fill="black"/>
<path fill-rule="evenodd" clip-rule="evenodd" d="M179.138 27.4409H184.331L183.476 24.9702C183.139 24.0025 182.869 23.2148 182.665 22.6082C182.46 22.0012 182.278 21.4668 182.117 21.0043H181.438C181.351 21.2497 181.263 21.4956 181.175 21.741C181.088 21.9868 180.989 22.2615 180.879 22.5646C180.77 22.868 180.65 23.2148 180.518 23.6051C180.386 23.9947 180.226 24.4501 180.036 24.9702L179.138 27.4409ZM174.164 33.4661L179.751 18.6633H183.892L189.414 33.4661V34.2246H186.697L185.119 29.7814H178.305L176.727 34.2246H174.164V33.4661Z" fill="black"/>
<path fill-rule="evenodd" clip-rule="evenodd" d="M205.908 30.1103C205.661 30.7178 205.337 31.2896 204.937 31.8259C204.536 32.3622 204.052 32.832 203.485 33.2333C202.917 33.6345 202.259 33.9519 201.509 34.1853C200.759 34.4187 199.926 34.5358 199.009 34.5358C197.845 34.5358 196.786 34.333 195.833 33.9278C194.879 33.5235 194.066 32.9627 193.392 32.2472C192.718 31.5308 192.197 30.6781 191.831 29.6872C191.464 28.6967 191.281 27.6228 191.281 26.4654C191.281 25.3089 191.464 24.2349 191.831 23.244C192.197 22.2536 192.721 21.3965 193.402 20.6731C194.084 19.9506 194.901 19.3824 195.855 18.9706C196.808 18.558 197.874 18.3521 199.053 18.3521C200.77 18.3521 202.208 18.7503 203.365 19.5454C204.522 20.3405 205.341 21.3965 205.821 22.7125L203.049 23.2545C202.67 22.4595 202.142 21.8336 201.465 21.3781C200.788 20.9227 199.97 20.6949 199.009 20.6949C198.238 20.6949 197.55 20.8427 196.946 21.1382C196.342 21.4336 195.833 21.8406 195.418 22.3594C195.003 22.8778 194.686 23.4901 194.468 24.1965C194.25 24.9024 194.141 25.6585 194.141 26.4654C194.141 27.2867 194.253 28.0468 194.479 28.7457C194.704 29.445 195.032 30.0495 195.461 30.5614C195.891 31.0728 196.411 31.4723 197.023 31.7603C197.634 32.0488 198.333 32.193 199.118 32.193C200.137 32.193 200.978 31.9469 201.64 31.4552C202.303 30.9635 202.815 30.3634 203.179 29.6544L205.908 30.1103Z" fill="black"/>
<path fill-rule="evenodd" clip-rule="evenodd" d="M209.469 18.4755H219.644V20.8823H212.16V24.9964H219.119V27.3596H212.16V31.7801H219.798V34.1874H209.469V18.4755Z" fill="black"/>
</g>
<defs>
<clipPath id="clip0_1_3199">
<rect width="220" height="48" fill="white" transform="translate(0.5 0.944092)"/>
</clipPath>
</defs>
</svg>
