<svg width="127" height="49" viewBox="0 0 127 49" fill="none" xmlns="http://www.w3.org/2000/svg">
<path d="M27.1506 12.8278C27.1253 12.6509 26.9736 12.5498 26.8472 12.5498C26.7208 12.5498 24.2181 12.4992 24.2181 12.4992C24.2181 12.4992 22.1199 10.4768 21.9177 10.2493C21.7154 10.0471 21.3109 10.0976 21.1593 10.1482C21.1593 10.1482 20.7548 10.2746 20.0975 10.4768C19.9964 10.1229 19.8194 9.69314 19.5919 9.2381C18.8588 7.82243 17.7465 7.06404 16.4319 7.06404C16.3308 7.06404 16.255 7.06404 16.1538 7.08932C16.1033 7.03876 16.078 6.9882 16.0274 6.96292C15.446 6.3562 14.7129 6.05284 13.8281 6.07812C12.1343 6.12868 10.4406 7.36739 9.05019 9.54146C8.08956 11.0835 7.35644 13.0048 7.12892 14.4963C5.18237 15.103 3.81726 15.5328 3.7667 15.5328C2.78079 15.8362 2.75551 15.8614 2.62911 16.7968C2.57855 17.5046 0 37.4504 0 37.4504L21.6396 41.1919L31.0184 38.8661C30.9931 38.8661 27.1759 13.0048 27.1506 12.8278ZM19.0105 10.8307C18.5049 10.9824 17.9487 11.1594 17.342 11.3616C17.342 10.5021 17.2156 9.28866 16.8364 8.27747C18.1257 8.47971 18.7577 9.94594 19.0105 10.8307ZM16.2044 11.6903C15.0668 12.0442 13.8281 12.4234 12.5894 12.8026C12.9433 11.4627 13.6006 10.1482 14.4095 9.26338C14.7129 8.93475 15.1426 8.58083 15.623 8.37859C16.1286 9.3645 16.2297 10.7549 16.2044 11.6903ZM13.8787 7.21571C14.2831 7.21571 14.6118 7.29155 14.8898 7.49379C14.4348 7.72131 13.9798 8.07523 13.5753 8.53027C12.4883 9.69314 11.654 11.488 11.3254 13.2323C10.2889 13.561 9.27771 13.8643 8.36764 14.1424C8.97435 11.3869 11.2748 7.29155 13.8787 7.21571Z" fill="#95BF47"/>
<path d="M26.8473 12.5499C26.7209 12.5499 24.2182 12.4994 24.2182 12.4994C24.2182 12.4994 22.12 10.477 21.9177 10.2494C21.8419 10.1736 21.7408 10.123 21.6396 10.123V41.192L31.0185 38.8663C31.0185 38.8663 27.2012 13.005 27.1759 12.828C27.1254 12.651 26.9737 12.5499 26.8473 12.5499Z" fill="#5E8E3E"/>
<path d="M16.4323 17.378L15.3452 21.4481C15.3452 21.4481 14.1318 20.8919 12.6908 20.9931C10.5673 21.1195 10.5673 22.4593 10.5673 22.7879C10.6937 24.6081 15.4716 25.0126 15.7497 29.2849C15.9519 32.6471 13.9801 34.9475 11.0982 35.1245C7.66015 35.3015 5.76416 33.2791 5.76416 33.2791L6.49728 30.1697C6.49728 30.1697 8.41855 31.6106 9.93534 31.5095C10.9213 31.4589 11.3005 30.6247 11.2499 30.0685C11.0982 27.6922 7.20511 27.8439 6.95231 23.9255C6.75008 20.6391 8.89886 17.3275 13.6515 17.0241C15.4969 16.8977 16.4323 17.378 16.4323 17.378Z" fill="white"/>
<path d="M43.7092 26.0494C42.6221 25.468 42.066 24.9624 42.066 24.2798C42.066 23.4203 42.8496 22.8642 44.0631 22.8642C45.4788 22.8642 46.7427 23.4456 46.7427 23.4456L47.7287 20.412C47.7287 20.412 46.8186 19.7042 44.1389 19.7042C40.3975 19.7042 37.7937 21.853 37.7937 24.8613C37.7937 26.5803 39.0071 27.8696 40.625 28.8049C41.9396 29.538 42.3946 30.0689 42.3946 30.8526C42.3946 31.6616 41.7373 32.3188 40.5239 32.3188C38.729 32.3188 37.01 31.3835 37.01 31.3835L35.9482 34.4171C35.9482 34.4171 37.5156 35.4788 40.17 35.4788C44.0125 35.4788 46.7933 33.5828 46.7933 30.17C46.768 28.3246 45.3776 27.0101 43.7092 26.0494Z" fill="black"/>
<path d="M59.0288 19.6538C57.1329 19.6538 55.6413 20.5639 54.5038 21.929L54.4532 21.9037L56.0964 13.3086H51.8241L47.6529 35.201H51.9252L53.3409 27.7181C53.897 24.8868 55.3633 23.1425 56.7284 23.1425C57.689 23.1425 58.0682 23.7997 58.0682 24.7351C58.0682 25.3165 58.0177 26.0496 57.8913 26.6311L56.2733 35.201H60.5456L62.2141 26.353C62.3911 25.4176 62.5175 24.3053 62.5175 23.5469C62.5428 21.1201 61.2788 19.6538 59.0288 19.6538Z" fill="black"/>
<path d="M72.2246 19.6535C67.0675 19.6535 63.6547 24.305 63.6547 29.4873C63.6547 32.799 65.7024 35.4787 69.5449 35.4787C74.6009 35.4787 78.0137 30.9536 78.0137 25.6448C78.039 22.5859 76.2441 19.6535 72.2246 19.6535ZM70.1263 32.2176C68.6601 32.2176 68.0534 30.9788 68.0534 29.4115C68.0534 26.9593 69.3174 22.9651 71.6431 22.9651C73.1599 22.9651 73.6655 24.2797 73.6655 25.5437C73.6655 28.1728 72.3763 32.2176 70.1263 32.2176Z" fill="black"/>
<path d="M88.9857 19.6535C86.1038 19.6535 84.4606 22.2067 84.4606 22.2067H84.4101L84.6629 19.9063H80.8709C80.6939 21.4483 80.34 23.8246 80.0114 25.5942L77.0283 41.2678H81.3006L82.4888 34.9225H82.5899C82.5899 34.9225 83.4747 35.4787 85.0926 35.4787C90.1233 35.4787 93.4097 30.3216 93.4097 25.1139C93.4097 22.232 92.1204 19.6535 88.9857 19.6535ZM84.8904 32.2681C83.7781 32.2681 83.1208 31.6361 83.1208 31.6361L83.8286 27.6419C84.3342 24.9622 85.7246 23.1926 87.2161 23.1926C88.5307 23.1926 88.9352 24.4061 88.9352 25.5437C88.9352 28.3245 87.292 32.2681 84.8904 32.2681Z" fill="black"/>
<path d="M99.5267 13.5107C98.1616 13.5107 97.0745 14.5978 97.0745 15.9882C97.0745 17.2522 97.8835 18.137 99.0969 18.137H99.1475C100.487 18.137 101.625 17.2269 101.65 15.6595C101.65 14.4208 100.816 13.5107 99.5267 13.5107Z" fill="black"/>
<path d="M93.5356 35.1754H97.8079L100.715 20.0075H96.4175L93.5356 35.1754Z" fill="black"/>
<path d="M111.61 19.9825H108.627L108.779 19.2747C109.032 17.8084 109.891 16.5192 111.332 16.5192C112.091 16.5192 112.698 16.7467 112.698 16.7467L113.532 13.3844C113.532 13.3844 112.799 13.0052 111.206 13.0052C109.689 13.0052 108.172 13.435 107.01 14.4209C105.543 15.6596 104.861 17.4545 104.532 19.2747L104.406 19.9825H102.409L101.777 23.2183H103.774L101.499 35.201H105.771L108.046 23.2183H111.004L111.61 19.9825Z" fill="black"/>
<path d="M121.924 20.0075C121.924 20.0075 119.245 26.7572 118.057 30.4481H118.006C117.93 29.26 116.944 20.0075 116.944 20.0075H112.444L115.023 33.9367C115.074 34.2401 115.048 34.4423 114.922 34.6446C114.416 35.6052 113.582 36.5406 112.596 37.2231C111.787 37.8046 110.877 38.1838 110.169 38.4366L111.357 42.0769C112.217 41.8999 114.037 41.1668 115.554 39.7511C117.5 37.931 119.321 35.0996 121.166 31.2571L126.399 20.0075H121.924Z" fill="black"/>
</svg>
