<svg width="211" height="49" viewBox="0 0 211 49" fill="none" xmlns="http://www.w3.org/2000/svg">
<g clip-path="url(#clip0_1_3203)">
<path d="M49.363 18.5431H31.5634L30.9276 19.0517V34.8806H35.8225V28.905L36.2674 28.4601H49.3628C52.6683 28.4601 54.1941 27.5702 54.1941 25.2817V21.6582C54.1943 19.4331 52.6685 18.5431 49.363 18.5431ZM49.363 24.3915C49.363 25.4721 48.6636 25.6628 47.0744 25.6628H36.3311L35.8225 25.2179V21.8488L36.2674 21.4038H47.0742C48.6 21.4038 49.3627 21.5945 49.3627 22.6751L49.363 24.3915ZM63.2211 21.5308L67.4803 27.7606L67.226 28.3328H57.8177L55.402 31.3206H69.3873L70.4044 31.8927L72.5658 34.8805H78.2235L65.8275 18.3524L63.2211 21.5308ZM119.353 31.702V27.2522L119.862 26.8071H129.334V24.01H114.331V34.8805H136.453V32.0834H119.925L119.353 31.702ZM114.331 18.5431H136.644V21.5945H114.331V18.5431ZM89.4754 21.4673H107.466C107.211 19.1788 105.749 18.5431 102.189 18.5431H89.2847C85.2163 18.5431 83.9449 19.306 83.9449 22.4208V31.0663C83.9449 34.1177 85.2163 34.9441 89.2847 34.9441H102.189C105.813 34.9441 107.211 34.2448 107.338 31.8927H89.4754L88.9668 31.3841V21.8488L89.4754 21.4673ZM18.8495 24.9001H5.81772L5.43628 24.4552V21.6581L5.81772 21.3403H23.4265L23.6808 20.7681C23.1086 19.2424 21.5194 18.4797 18.6587 18.4797H6.3898C2.32139 18.4797 1.04997 19.2425 1.04997 22.3573V24.2009C1.04997 27.2523 2.32139 28.0787 6.3898 28.0787H19.4216L19.803 28.46V31.3842L19.4852 31.8292H0.668534C0.668534 31.8292 0.223633 32.0834 0.223633 32.147C0.541443 34.3084 2.00357 34.8805 5.49983 34.8805H18.8496C22.918 34.8805 24.253 34.1177 24.253 31.0028V28.7778C24.2529 25.7265 22.918 24.9001 18.8495 24.9001ZM150.693 18.4796H143.319L142.937 19.2424L151.074 25.218C152.6 24.3279 154.316 23.4381 156.096 22.548L150.693 18.4796ZM157.304 29.6678L164.488 34.8805H171.862L172.179 34.1812L161.5 26.3621C160.101 27.4428 158.639 28.5235 157.304 29.6678Z" fill="#005288"/>
<path d="M149.613 34.8805H142.938L142.366 33.9904C146.879 29.6042 167.094 10.9148 211.021 8.94409C211.021 8.94409 174.214 10.2154 149.613 34.8805Z" fill="#A7A9AC"/>
</g>
<defs>
<clipPath id="clip0_1_3203">
<rect width="211" height="48" fill="white" transform="translate(0 0.944092)"/>
</clipPath>
</defs>
</svg>
