<svg width="121" height="49" viewBox="0 0 121 49" fill="none" xmlns="http://www.w3.org/2000/svg">
<path d="M37.9253 33.3704L39.3934 29.939C41.0009 31.1294 43.0975 31.7595 45.1947 31.7595C46.7325 31.7595 47.7109 31.1645 47.7109 30.2542C47.6758 27.733 38.4496 29.6939 38.3794 23.3552C38.3443 20.1338 41.2104 17.6477 45.2649 17.6477C47.6758 17.6477 50.0878 18.2431 51.8 19.609L50.4281 23.1136C48.8527 22.1007 46.9069 21.3944 45.0549 21.3944C43.7968 21.3944 42.9577 21.9894 42.9577 22.7603C42.9928 25.2464 52.2897 23.8805 52.3945 29.939C52.3945 33.2306 49.5981 35.5418 45.6137 35.5418C42.6785 35.5418 39.9874 34.8415 37.9248 33.3704H37.9253ZM96.3833 28.6964C96.0128 29.3548 95.4737 29.9029 94.8215 30.2843C94.1692 30.6657 93.4273 30.8667 92.6717 30.8668C90.3169 30.8668 88.4082 28.954 88.4082 26.5947C88.4082 24.2354 90.3169 22.3227 92.6717 22.3227C93.4273 22.3228 94.1692 22.5238 94.8215 22.9052C95.4737 23.2866 96.0128 23.8346 96.3833 24.493L100.465 22.2275C98.9361 19.4952 96.0199 17.6477 92.6717 17.6477C87.74 17.6477 83.7422 21.653 83.7422 26.5947C83.7422 31.5359 87.74 35.5418 92.6717 35.5418C96.0199 35.5418 98.9361 33.6942 100.465 30.962L96.3833 28.6964ZM55.043 35.1914H60.1456V10.1998H55.0435L55.043 35.1914ZM103.042 10.1998V35.1914H108.144V27.704L114.191 35.1914H120.713L113.024 26.2965L120.153 17.9965H113.911L108.144 24.897V10.1998H103.042ZM75.8658 17.9975V20.029C75.0272 18.6281 72.9651 17.6477 70.7983 17.6477C66.3248 17.6477 62.7951 21.6049 62.7951 26.5772C62.7951 31.5494 66.3248 35.5418 70.7983 35.5418C72.9651 35.5418 75.0272 34.5614 75.8658 33.1604V35.1914H80.9684V17.9975H75.8658ZM75.8658 28.731C75.132 29.9565 73.5942 30.8662 71.882 30.8662C69.5267 30.8662 67.618 28.954 67.618 26.5947C67.618 24.2354 69.5267 22.3227 71.882 22.3227C73.5942 22.3227 75.132 23.268 75.8658 24.5281V28.731Z" fill="black"/>
<path d="M10.978 9.64771C9.32448 9.64771 7.98417 10.991 7.98417 12.6476C7.98378 13.0412 8.0609 13.4309 8.21115 13.7947C8.36139 14.1584 8.58181 14.489 8.85981 14.7676C9.13782 15.0462 9.46797 15.2672 9.83142 15.4182C10.1949 15.5692 10.5845 15.6471 10.978 15.6475H13.9724V12.6476C13.9731 11.8527 13.658 11.0901 13.0965 10.5276C12.5349 9.96499 11.7729 9.6485 10.978 9.64771ZM10.978 17.6474H2.99388C1.3403 17.6474 0 18.9907 0 20.6478C0 22.3044 1.3403 23.6477 2.99388 23.6477H10.9785C12.6316 23.6477 13.9724 22.3044 13.9724 20.6478C13.9724 18.9907 12.6316 17.6474 10.978 17.6474Z" fill="#36C5F0"/>
<path d="M29.9412 20.6478C29.9412 18.9907 28.6004 17.6474 26.9468 17.6474C25.2932 17.6474 23.9529 18.9907 23.9529 20.6478V23.6477H26.9468C27.7417 23.6469 28.5037 23.3304 29.0652 22.7678C29.6268 22.2053 29.9418 21.4427 29.9412 20.6478ZM21.957 20.6478V12.6476C21.9577 11.8527 21.6426 11.0901 21.081 10.5276C20.5195 9.96499 19.7575 9.6485 18.9626 9.64771C17.3091 9.64771 15.9688 10.991 15.9688 12.6476V20.6473C15.9688 22.3049 17.3091 23.6482 18.9626 23.6482C19.7575 23.6474 20.5195 23.3309 21.081 22.7683C21.6426 22.2058 21.9577 21.4432 21.957 20.6483" fill="#2EB67D"/>
<path d="M18.9626 39.6477C19.7575 39.6469 20.5195 39.3304 21.081 38.7678C21.6426 38.2053 21.9577 37.4427 21.957 36.6478C21.9577 35.8529 21.6426 35.0904 21.081 34.5278C20.5195 33.9652 19.7575 33.6487 18.9626 33.6479H15.9688V36.6478C15.9688 38.3044 17.3091 39.6477 18.9626 39.6477ZM18.9626 31.648H26.9473C28.6004 31.648 29.9412 30.3047 29.9412 28.6476C29.9418 27.8527 29.6268 27.0901 29.0652 26.5276C28.5037 25.965 27.7417 25.6485 26.9468 25.6477H18.9626C17.3091 25.6477 15.9688 26.991 15.9688 28.6476C15.9684 29.0412 16.0455 29.4309 16.1957 29.7947C16.346 30.1584 16.5664 30.489 16.8444 30.7676C17.1224 31.0462 17.4526 31.2672 17.816 31.4182C18.1794 31.5692 18.5691 31.6471 18.9626 31.6475" fill="#ECB22E"/>
<path d="M1.51064e-06 28.6476C-0.000393626 29.0412 0.0767319 29.4309 0.226974 29.7947C0.377217 30.1584 0.597634 30.489 0.875642 30.7676C1.15365 31.0462 1.4838 31.2672 1.84725 31.4182C2.2107 31.5692 2.60032 31.6471 2.99388 31.6475C3.78875 31.6467 4.55075 31.3302 5.11229 30.7676C5.67383 30.2051 5.98892 29.4425 5.98826 28.6476V25.6477H2.99388C1.3403 25.6477 1.51064e-06 26.991 1.51064e-06 28.6476ZM7.98417 28.6476V36.6473C7.98417 38.3044 9.32448 39.6477 10.9781 39.6477C11.7729 39.6469 12.5349 39.3304 13.0965 38.7678C13.658 38.2053 13.9731 37.4427 13.9724 36.6478V28.6476C13.9728 28.254 13.8957 27.8642 13.7454 27.5004C13.5951 27.1366 13.3747 26.806 13.0966 26.5274C12.8186 26.2488 12.4883 26.0278 12.1248 25.8768C11.7613 25.7259 11.3716 25.648 10.9781 25.6477C9.32448 25.6477 7.98417 26.991 7.98417 28.6476Z" fill="#E01E5A"/>
</svg>
