<svg width="21" height="20" viewBox="0 0 21 20" fill="none" xmlns="http://www.w3.org/2000/svg">
<path d="M10.4173 1.66675C5.82232 1.66675 2.08398 5.40508 2.08398 10.0001C2.08398 14.5951 5.82232 18.3334 10.4173 18.3334C15.0123 18.3334 18.7507 14.5951 18.7507 10.0001C18.7507 5.40508 15.0123 1.66675 10.4173 1.66675ZM3.75065 10.0001C3.75065 9.25092 3.88065 8.53175 4.10982 7.85925L5.41732 9.16675L7.08398 10.8334V12.5001L8.75065 14.1667L9.58398 15.0001V16.6092C6.30148 16.1967 3.75065 13.3934 3.75065 10.0001ZM15.6923 14.0609C15.1482 13.6226 14.3232 13.3334 13.7507 13.3334V12.5001C13.7507 12.0581 13.5751 11.6341 13.2625 11.3216C12.9499 11.009 12.526 10.8334 12.084 10.8334H8.75065V8.33342C9.19268 8.33342 9.6166 8.15782 9.92916 7.84526C10.2417 7.5327 10.4173 7.10878 10.4173 6.66675V5.83342H11.2507C11.6927 5.83342 12.1166 5.65782 12.4292 5.34526C12.7417 5.0327 12.9173 4.60878 12.9173 4.16675V3.82425C15.3573 4.81508 17.084 7.20842 17.084 10.0001C17.0838 11.4707 16.5942 12.8994 15.6923 14.0609Z" fill="#7AC4E4"/>
</svg>
