<svg width="21" height="20" viewBox="0 0 21 20" fill="none" xmlns="http://www.w3.org/2000/svg">
<path d="M17.084 3.33325H3.75065C3.30862 3.33325 2.8847 3.50885 2.57214 3.82141C2.25958 4.13397 2.08398 4.55789 2.08398 4.99992V14.9999C2.08398 15.4419 2.25958 15.8659 2.57214 16.1784C2.8847 16.491 3.30862 16.6666 3.75065 16.6666H17.084C17.526 16.6666 17.9499 16.491 18.2625 16.1784C18.5751 15.8659 18.7507 15.4419 18.7507 14.9999V4.99992C18.7507 4.55789 18.5751 4.13397 18.2625 3.82141C17.9499 3.50885 17.526 3.33325 17.084 3.33325ZM17.084 7.24992L10.4173 11.6949L3.75065 7.24992V5.24742L10.4173 9.69158L17.084 5.24742V7.24992Z" fill="#7AC4E4"/>
</svg>
