<svg width="19" height="19" viewBox="0 0 19 19" fill="none" xmlns="http://www.w3.org/2000/svg">
<path d="M8.999 4.377C7.77264 4.377 6.59651 4.86417 5.72934 5.73134C4.86217 6.59851 4.375 7.77464 4.375 9.001C4.375 10.2274 4.86217 11.4035 5.72934 12.2707C6.59651 13.1378 7.77264 13.625 8.999 13.625C10.2254 13.625 11.4015 13.1378 12.2687 12.2707C13.1358 11.4035 13.623 10.2274 13.623 9.001C13.623 7.77464 13.1358 6.59851 12.2687 5.73134C11.4015 4.86417 10.2254 4.377 8.999 4.377V4.377ZM8.999 12.004C8.20229 12.004 7.43821 11.6875 6.87485 11.1241C6.31149 10.5608 5.995 9.79671 5.995 9C5.995 8.20329 6.31149 7.43921 6.87485 6.87585C7.43821 6.31249 8.20229 5.996 8.999 5.996C9.79571 5.996 10.5598 6.31249 11.1231 6.87585C11.6865 7.43921 12.003 8.20329 12.003 9C12.003 9.79671 11.6865 10.5608 11.1231 11.1241C10.5598 11.6875 9.79571 12.004 8.999 12.004V12.004Z" fill="#7AC4E4"/>
<path d="M13.806 5.285C14.4014 5.285 14.884 4.80236 14.884 4.207C14.884 3.61163 14.4014 3.129 13.806 3.129C13.2106 3.129 12.728 3.61163 12.728 4.207C12.728 4.80236 13.2106 5.285 13.806 5.285Z" fill="#7AC4E4"/>
<path d="M17.533 3.111C17.3015 2.51318 16.9477 1.97028 16.4944 1.51706C16.041 1.06383 15.4979 0.710268 14.9 0.478997C14.2004 0.216354 13.4612 0.0743384 12.714 0.0589971C11.751 0.0169972 11.446 0.00499725 9.00402 0.00499725C6.56202 0.00499725 6.24902 0.00499715 5.29402 0.0589971C4.5474 0.073554 3.80877 0.215599 3.11001 0.478997C2.51195 0.709998 1.96878 1.06347 1.51535 1.51673C1.06192 1.96998 0.708243 2.51302 0.477014 3.111C0.214319 3.81061 0.0726287 4.54983 0.0580142 5.297C0.0150142 6.259 0.00201416 6.564 0.00201416 9.00699C0.00201416 11.449 0.00201415 11.76 0.0580142 12.717C0.0730142 13.465 0.214014 14.203 0.477014 14.904C0.708892 15.5018 1.06291 16.0446 1.51645 16.4978C1.96999 16.951 2.51308 17.3046 3.11101 17.536C3.80845 17.8092 4.54739 17.9614 5.29602 17.986C6.25902 18.028 6.56402 18.041 9.00602 18.041C11.448 18.041 11.761 18.041 12.716 17.986C13.4631 17.9708 14.2022 17.8291 14.902 17.567C15.4998 17.3352 16.0426 16.9813 16.496 16.528C16.9493 16.0746 17.3032 15.5317 17.535 14.934C17.798 14.234 17.939 13.496 17.954 12.748C17.997 11.786 18.01 11.481 18.01 9.038C18.01 6.595 18.01 6.285 17.954 5.328C17.9424 4.57027 17.8 3.82024 17.533 3.111V3.111ZM16.315 12.643C16.3086 13.2193 16.2034 13.7902 16.004 14.331C15.8538 14.7199 15.6239 15.073 15.3291 15.3677C15.0342 15.6623 14.681 15.892 14.292 16.042C13.7572 16.2404 13.1924 16.3456 12.622 16.353C11.672 16.397 11.404 16.408 8.96802 16.408C6.53002 16.408 6.28102 16.408 5.31302 16.353C4.74294 16.346 4.17834 16.2408 3.64401 16.042C3.2537 15.893 2.89902 15.6637 2.6029 15.369C2.30679 15.0742 2.07585 14.7206 1.92501 14.331C1.72846 13.796 1.62333 13.2318 1.61401 12.662C1.57101 11.712 1.56101 11.444 1.56101 9.008C1.56101 6.571 1.56101 6.322 1.61401 5.353C1.62048 4.77702 1.72567 4.20642 1.92501 3.666C2.23001 2.877 2.85501 2.256 3.64401 1.954C4.1786 1.75614 4.74304 1.65096 5.31302 1.643C6.26402 1.6 6.53102 1.588 8.96802 1.588C11.405 1.588 11.655 1.588 12.622 1.643C13.1924 1.64986 13.7574 1.75507 14.292 1.954C14.6809 2.10427 15.0342 2.3342 15.329 2.62903C15.6238 2.92385 15.8537 3.27707 16.004 3.666C16.2006 4.20095 16.3057 4.76516 16.315 5.335C16.358 6.286 16.369 6.553 16.369 8.98999C16.369 11.426 16.369 11.688 16.326 12.644H16.315V12.643Z" fill="#7AC4E4"/>
</svg>
