<svg width="20" height="20" viewBox="0 0 20 20" fill="none" xmlns="http://www.w3.org/2000/svg">
<path d="M16.667 3.33325H3.33366C2.89163 3.33325 2.46771 3.50885 2.15515 3.82141C1.84259 4.13397 1.66699 4.55789 1.66699 4.99992V14.9999C1.66699 15.4419 1.84259 15.8659 2.15515 16.1784C2.46771 16.491 2.89163 16.6666 3.33366 16.6666H16.667C17.109 16.6666 17.5329 16.491 17.8455 16.1784C18.1581 15.8659 18.3337 15.4419 18.3337 14.9999V4.99992C18.3337 4.55789 18.1581 4.13397 17.8455 3.82141C17.5329 3.50885 17.109 3.33325 16.667 3.33325ZM16.667 7.24992L10.0003 11.6949L3.33366 7.24992V5.24742L10.0003 9.69158L16.667 5.24742V7.24992Z" fill="#7AC4E4"/>
</svg>
