<svg width="28" height="28" viewBox="0 0 28 28" fill="none" xmlns="http://www.w3.org/2000/svg">
<path d="M13.9998 20.6667L15.3332 18.0001V11.1441C17.6278 10.5481 19.3332 8.47741 19.3332 6.00008C19.3332 3.05875 16.9412 0.666748 13.9998 0.666748C11.0585 0.666748 8.6665 3.05875 8.6665 6.00008C8.6665 8.47741 10.3718 10.5481 12.6665 11.1441V18.0001L13.9998 20.6667ZM11.3332 6.00008C11.3332 4.52941 12.5292 3.33341 13.9998 3.33341C15.4705 3.33341 16.6665 4.52941 16.6665 6.00008C16.6665 7.47075 15.4705 8.66675 13.9998 8.66675C12.5292 8.66675 11.3332 7.47075 11.3332 6.00008Z" fill="#7AC4E4"/>
<path d="M19.6892 12.0841L18.9785 14.6548C22.4332 15.6094 24.6665 17.4454 24.6665 19.3334C24.6665 21.8561 20.2865 24.6668 13.9998 24.6668C7.71317 24.6668 3.33317 21.8561 3.33317 19.3334C3.33317 17.4454 5.5665 15.6094 9.0225 14.6534L8.31184 12.0828C3.59584 13.3868 0.666504 16.1641 0.666504 19.3334C0.666504 23.8188 6.52384 27.3334 13.9998 27.3334C21.4758 27.3334 27.3332 23.8188 27.3332 19.3334C27.3332 16.1641 24.4038 13.3868 19.6892 12.0841V12.0841Z" fill="#7AC4E4"/>
</svg>
