<svg width="20" height="20" viewBox="0 0 20 20" fill="none" xmlns="http://www.w3.org/2000/svg">
<path d="M10.0003 1.66675C5.40533 1.66675 1.66699 5.40508 1.66699 10.0001C1.66699 14.5951 5.40533 18.3334 10.0003 18.3334C14.5953 18.3334 18.3337 14.5951 18.3337 10.0001C18.3337 5.40508 14.5953 1.66675 10.0003 1.66675ZM3.33366 10.0001C3.33366 9.25092 3.46366 8.53175 3.69283 7.85925L5.00033 9.16675L6.66699 10.8334V12.5001L8.33366 14.1667L9.16699 15.0001V16.6092C5.88449 16.1967 3.33366 13.3934 3.33366 10.0001ZM15.2753 14.0609C14.7312 13.6226 13.9062 13.3334 13.3337 13.3334V12.5001C13.3337 12.0581 13.1581 11.6341 12.8455 11.3216C12.5329 11.009 12.109 10.8334 11.667 10.8334H8.33366V8.33342C8.77569 8.33342 9.19961 8.15782 9.51217 7.84526C9.82473 7.5327 10.0003 7.10878 10.0003 6.66675V5.83342H10.8337C11.2757 5.83342 11.6996 5.65782 12.0122 5.34526C12.3247 5.0327 12.5003 4.60878 12.5003 4.16675V3.82425C14.9403 4.81508 16.667 7.20842 16.667 10.0001C16.6668 11.4707 16.1772 12.8994 15.2753 14.0609Z" fill="#7AC4E4"/>
</svg>
