<svg width="29" height="29" viewBox="0 0 29 29" fill="none" xmlns="http://www.w3.org/2000/svg">
<path d="M23.833 3.52808H8.66634C7.37951 3.52808 6.33301 4.57458 6.33301 5.86141V8.19474H5.16634C3.87951 8.19474 2.83301 9.24124 2.83301 10.5281V22.1947C2.83301 23.4816 3.87951 24.5281 5.16634 24.5281H12.1663C13.4532 24.5281 14.4997 23.4816 14.4997 22.1947H23.833C25.1198 22.1947 26.1663 21.1482 26.1663 19.8614V5.86141C26.1663 4.57458 25.1198 3.52808 23.833 3.52808ZM7.49967 10.5281H12.1663L12.1628 21.0281H5.16634V10.5281H7.49967ZM14.4997 19.8614V10.5281C14.4997 9.24124 13.4532 8.19474 12.1663 8.19474H8.66634V5.86141H21.4997V19.8614H14.4997Z" fill="#05405E"/>
</svg>
