<svg width="21" height="20" viewBox="0 0 21 20" fill="none" xmlns="http://www.w3.org/2000/svg">
<path d="M17.4897 14.2835L14.1022 11.2035C13.9421 11.0579 13.7317 10.9803 13.5154 10.987C13.2991 10.9937 13.0939 11.0841 12.9431 11.2393L10.9489 13.2901C10.4689 13.1985 9.50389 12.8976 8.51056 11.9068C7.51723 10.9126 7.21639 9.94512 7.12723 9.46845L9.17639 7.47345C9.33174 7.32272 9.42234 7.11747 9.42903 6.90112C9.43572 6.68478 9.35796 6.47432 9.21223 6.31428L6.13306 2.92762C5.98726 2.76708 5.78463 2.6697 5.56819 2.65617C5.35175 2.64263 5.13856 2.714 4.97389 2.85512L3.16556 4.40595C3.02149 4.55055 2.93549 4.74299 2.92389 4.94678C2.91139 5.15512 2.67306 10.0901 6.49973 13.9185C9.83806 17.256 14.0197 17.5001 15.1714 17.5001C15.3397 17.5001 15.4431 17.4951 15.4706 17.4935C15.6743 17.482 15.8667 17.3957 16.0106 17.251L17.5606 15.4418C17.7022 15.2776 17.7741 15.0646 17.7609 14.8482C17.7477 14.6318 17.6503 14.4291 17.4897 14.2835Z" fill="#7AC4E4"/>
</svg>
