<svg width="179" height="30" viewBox="0 0 179 30" fill="none" xmlns="http://www.w3.org/2000/svg">
<path d="M4.7435 17.2049L0 8.60962L4.7435 0L9.56934 8.60962L4.7435 17.2049Z" fill="#0576AE"/>
<path d="M16.6221 17.2049L11.8965 8.60962L16.6221 0L21.4497 8.60962L16.6221 17.2049Z" fill="#93BB3E"/>
<path d="M11.1799 29.9946L6.43457 21.4083L11.1799 12.8059L15.9019 21.4083L11.1799 29.9946Z" fill="#B21E3C"/>
<path d="M23.055 29.9946L18.2256 21.4083L23.055 12.8059L27.7949 21.4083L23.055 29.9946Z" fill="#EDB01F"/>
<path d="M29.3988 17.2049L24.666 8.60962L29.3988 0L34.2336 8.60962L29.3988 17.2049Z" fill="#7BC4E4"/>
<path d="M4.74348 6.71875H3.11816L3.40456 10.0323L4.8294 10.4791L6.25424 10.0323L6.53706 6.71875H4.74348ZM5.80853 7.70009H4.74348H4.19395V8.2401H4.74348H5.72261L5.62058 9.58563L4.74348 9.86012L3.84848 9.58563V9.1425H4.29598V9.22323L4.74348 9.49234L5.17308 9.30756V8.77652H4.74348H3.74824L3.66232 7.25876H4.74348H5.80674L5.80853 7.70009Z" fill="white"/>
<path d="M15.1133 6.89087L15.3675 10.1184L16.6223 10.479L17.8735 10.1184L18.1366 6.89087H15.1133ZM17.6068 7.89374V8.2382L17.4278 9.49044L16.6223 9.66267L15.8221 9.49223L15.7255 8.87688H16.0978V9.22133L16.5399 9.30745L16.9785 9.22133L17.0841 8.69747H15.7255V8.32431H17.1664V7.97627H15.6431V7.61387H16.6223H17.6068V7.89374Z" fill="white"/>
<path d="M11.9862 19.53C12.0757 19.53 12.158 19.53 12.158 19.6036L12.9582 21.064C12.9582 21.1572 12.9582 21.2308 12.9582 21.2308L12.158 22.675C12.158 22.7521 12.0757 22.7522 11.9862 22.7522H10.2785C10.1998 22.7522 10.1049 22.7521 10.1049 22.675L9.29044 21.2308C9.29044 21.1572 9.29044 21.064 9.29044 21.064L10.1049 19.6036C10.1049 19.53 10.1998 19.53 10.2785 19.53H11.9862ZM11.9862 19.1641H10.2785C10.1049 19.1641 9.92768 19.2681 9.74152 19.4314L8.94139 20.9635C8.85547 21.1555 8.85547 21.3277 8.94139 21.5932L9.74152 23.0266C9.8346 23.1989 10.0047 23.2868 10.2785 23.2868H11.988C12.1598 23.2868 12.3317 23.1989 12.5124 23.0266L13.3144 21.5932C13.4057 21.4066 13.4057 21.2308 13.3144 20.9635L12.5124 19.4314C12.4247 19.2663 12.2422 19.1641 11.9862 19.1641Z" fill="white"/>
<path d="M10.4503 21.9574C10.2766 21.9574 10.1979 21.9574 10.1048 21.8497C10.0045 21.7618 10.0045 21.6739 9.92578 21.5914H10.1979C10.1979 21.6739 10.1979 21.6739 10.2766 21.7618C10.2766 21.7618 10.3697 21.8515 10.4503 21.9574C10.5541 21.8497 10.5541 21.8497 10.6346 21.7636C10.6346 21.7636 10.7313 21.6757 10.7313 21.5932V20.8809H10.4503V20.6064H11.0839V21.595C11.0839 21.7654 11.0839 21.8533 11.0016 21.9592C10.7331 21.9574 10.6346 21.9574 10.4503 21.9574Z" fill="white"/>
<path d="M12.3297 21.5931C12.3297 21.7636 12.242 21.8515 12.1578 21.9573C12.0755 22.0398 11.8947 22.0398 11.7014 22.0398C11.5295 22.0398 11.3434 22.0398 11.261 21.9573C11.1787 21.8497 11.082 21.7636 11.082 21.6756L11.3434 21.5931C11.3434 21.6757 11.4561 21.6756 11.4561 21.7636C11.5313 21.7636 11.6244 21.8515 11.7014 21.8515C11.8947 21.8515 12.0737 21.7636 12.0737 21.6756V21.5931L11.9842 21.5178C11.9842 21.5178 11.8929 21.5178 11.6996 21.4065C11.6226 21.4065 11.5277 21.3276 11.5277 21.3276C11.5277 21.3276 11.4526 21.3276 11.4526 21.2289L11.3398 21.1554C11.3398 21.1554 11.3398 21.0621 11.2575 21.0621C11.2575 21.0621 11.2575 20.9616 11.2575 20.8773C11.2575 20.7732 11.3398 20.6028 11.4526 20.6028C11.5277 20.6028 11.6978 20.5095 11.8911 20.5095C12.0719 20.5095 12.1542 20.5095 12.2366 20.6028C12.3243 20.6979 12.421 20.775 12.421 20.8773H12.1578C12.1578 20.7732 12.0755 20.7732 12.0755 20.6961C11.986 20.6961 11.986 20.601 11.8947 20.601C11.7014 20.601 11.6244 20.6961 11.6244 20.7732V20.8773C11.6244 20.8773 11.7014 20.8773 11.7014 20.9616C11.7014 20.9616 11.7909 20.9616 11.986 21.0621C12.1578 21.0621 12.242 21.1554 12.242 21.1554C12.3297 21.1554 12.3297 21.2289 12.4263 21.2289L12.5122 21.3276C12.3297 21.4083 12.3297 21.5178 12.3297 21.5931Z" fill="white"/>
<path d="M28.592 8.60972C28.592 8.50925 28.592 8.32446 28.3307 8.32446H28.0622L27.9727 8.96314H28.2412C28.4291 8.96314 28.5114 8.69942 28.592 8.60972Z" fill="white"/>
<path d="M31.3666 8.9631C31.2824 9.05639 31.0998 9.1425 30.9352 9.1425H30.5628L30.4071 9.58563H30.033L30.4071 8.06428H31.0998C31.1965 8.06428 31.2824 8.06428 31.2824 8.1486C31.0193 7.34308 30.2979 6.71875 29.4011 6.71875C28.3325 6.71875 27.4375 7.61398 27.4375 8.69937C27.4375 8.87878 27.4375 9.05639 27.527 9.22323L27.7114 8.06428H28.4292C28.7764 8.06428 28.8749 8.32442 28.8749 8.60967C28.8749 8.77652 28.6959 9.22323 28.2412 9.22323H27.8832L27.7955 9.66457H27.7114C28.0622 10.3086 28.6959 10.6692 29.3993 10.6692C30.4071 10.567 31.1965 9.957 31.3666 8.9631C31.3666 8.87698 31.3666 8.87699 31.3666 8.77652C31.3666 8.87699 31.3666 8.9631 31.3666 8.9631ZM29.6732 9.22323C29.6732 9.22323 29.7591 8.60967 29.8576 8.511C29.8576 8.32442 29.7591 8.32442 29.5945 8.32442C29.4906 8.32442 29.4029 8.32442 29.4029 8.32442L29.2311 9.22323H28.8784L29.1452 7.61577H29.4906L29.4029 8.06608C29.4906 8.06608 29.675 8.06608 29.8594 8.06608C30.0366 8.06608 30.2084 8.1504 30.2084 8.32621C30.2084 8.51279 30.0348 9.22503 30.0348 9.22503H29.6732V9.22323Z" fill="white"/>
<path d="M30.6522 8.23999L30.5645 8.87688H30.8491C31.1015 8.87688 31.1981 8.60956 31.1981 8.5091C31.1981 8.41581 31.1981 8.23999 30.9368 8.23999H30.6522Z" fill="white"/>
<path d="M23.0556 21.5933L22.5186 23.0267C22.6976 23.0267 22.7942 23.1092 22.9661 23.1092C23.1468 23.1092 23.3115 23.1092 23.5013 23.0267L23.0556 21.5933Z" fill="white"/>
<path d="M21.3623 21.4083C21.3623 22.0416 21.7131 22.6749 22.2501 22.9386L21.45 20.7786C21.45 20.9651 21.3623 21.2307 21.3623 21.4083Z" fill="white"/>
<path d="M24.1224 21.3293C24.1224 21.1571 24.04 20.9651 23.9505 20.8808C23.8664 20.6996 23.7715 20.6063 23.7715 20.513C23.7715 20.348 23.8664 20.2493 24.0382 20.2493C23.7715 19.9748 23.3097 19.79 22.9642 19.79C22.4362 19.79 21.8956 20.0663 21.6289 20.513H21.7112C21.8956 20.513 22.1587 20.513 22.1587 20.513C22.2482 20.513 22.2482 20.6063 22.1587 20.6996C22.1587 20.6996 22.0675 20.6996 21.9923 20.6996L22.608 22.4811L22.9625 21.4065L22.6957 20.6978C22.608 20.6978 22.5167 20.6978 22.5167 20.6978C22.4344 20.6978 22.4344 20.5112 22.5167 20.5112C22.5167 20.5112 22.7924 20.5112 22.9642 20.5112C23.145 20.5112 23.4189 20.5112 23.4189 20.5112C23.4995 20.5112 23.4995 20.6045 23.4189 20.6978C23.4189 20.6978 23.3097 20.6978 23.2381 20.6978L23.8664 22.4793L24.0382 21.9554C24.1224 21.6756 24.1224 21.5177 24.1224 21.3293Z" fill="white"/>
<path d="M24.5018 20.6997C24.5018 20.7769 24.5018 20.7769 24.5018 20.8809C24.5018 21.0657 24.5018 21.2307 24.398 21.5178L23.8682 22.9369C24.3157 22.6749 24.6683 22.1278 24.6683 21.5178C24.6665 21.1572 24.5698 20.8809 24.5018 20.6997Z" fill="white"/>
<path d="M23.0552 19.3452C21.8971 19.3452 21.0039 20.2476 21.0039 21.4066C21.0039 22.5673 21.8989 23.4679 23.0552 23.4679C24.2205 23.4679 25.1137 22.5673 25.1137 21.4066C25.1137 20.2476 24.2205 19.3452 23.0552 19.3452ZM23.0552 23.2849C22.069 23.2849 21.2778 22.4812 21.2778 21.5178C21.2778 20.5113 22.0672 19.7076 23.0552 19.7076C24.0397 19.7076 24.8488 20.5113 24.8488 21.5178C24.8488 22.4812 24.0397 23.2849 23.0552 23.2849Z" fill="white"/>
<path d="M52.6866 23.5683L54.6162 24.5784C53.9825 25.8324 53.2558 26.8371 52.4216 27.5996C51.6 28.3638 50.6656 28.9451 49.6274 29.3488C48.5839 29.7434 47.4132 29.9426 46.1047 29.9426C43.1996 29.9426 40.9316 28.9935 39.292 27.0865C37.6559 25.183 36.8379 23.0283 36.8379 20.6136C36.8379 18.3602 37.5342 16.3401 38.9143 14.573C40.6703 12.3197 43.0259 11.1948 45.9741 11.1948C49.0045 11.1948 51.43 12.352 53.2397 14.6519C54.532 16.2827 55.1836 18.3154 55.2051 20.7517H39.1971C39.2347 22.8184 39.9024 24.5192 41.1733 25.8468C42.4513 27.1708 44.0337 27.831 45.9042 27.831C46.8118 27.831 47.6978 27.6695 48.5552 27.3592C49.4126 27.0434 50.1412 26.6182 50.7408 26.1033C51.3405 25.5723 51.9867 24.7345 52.6866 23.5683ZM52.6866 18.7603C52.384 17.5422 51.9347 16.559 51.353 15.8324C50.7659 15.104 49.9998 14.5048 49.0367 14.0635C48.0773 13.6114 47.0659 13.3854 46.0134 13.3854C44.2646 13.3854 42.7592 13.9469 41.508 15.0718C40.5861 15.8934 39.8988 17.1277 39.4227 18.7603H52.6866Z" fill="white"/>
<path d="M59.6211 29.4816V4.76685H61.9123V14.713C62.8717 13.5343 63.9475 12.6499 65.1289 12.0704C66.3175 11.4837 67.6152 11.1913 69.0365 11.1913C71.5479 11.1913 73.6977 12.1117 75.4841 13.9344C77.2598 15.7625 78.1512 17.9872 78.1512 20.5975C78.1512 23.1755 77.2544 25.3804 75.4572 27.2085C73.6601 29.0367 71.4995 29.9391 68.9738 29.9391C67.5204 29.9391 66.2101 29.6305 65.0323 29.0062C63.8562 28.3872 62.8127 27.4525 61.9105 26.2057V29.478H59.6211V29.4816ZM68.7805 27.7234C70.0568 27.7234 71.231 27.4149 72.3032 26.7833C73.3844 26.1572 74.2436 25.2799 74.8737 24.1407C75.5145 23.0033 75.8278 21.7959 75.8278 20.5329C75.8278 19.2663 75.5091 18.0661 74.8683 16.9179C74.2221 15.7572 73.3665 14.8709 72.2782 14.2268C71.197 13.5917 70.0407 13.2742 68.811 13.2742C67.5633 13.2742 66.3748 13.5935 65.2489 14.2268C64.1229 14.8709 63.2548 15.7267 62.6534 16.8121C62.0519 17.8975 61.7458 19.1156 61.7458 20.4665C61.7458 22.5333 62.4242 24.2591 63.7793 25.6495C65.1361 27.0345 66.7972 27.7234 68.7805 27.7234Z" fill="white"/>
<path d="M84.3156 5.02319H86.6032V11.6522H90.2387V13.6346H86.6032V29.4814H84.3156V13.6346H81.1885V11.6522H84.3156V5.02319Z" fill="white"/>
<path d="M92.8018 11.6522H95.1449V14.25C95.843 13.231 96.5769 12.4596 97.3519 11.9554C98.1216 11.4459 98.9361 11.1912 99.7738 11.1912C100.409 11.1912 101.079 11.3939 101.8 11.8011L100.604 13.7261C100.125 13.5234 99.7237 13.4176 99.3979 13.4176C98.6372 13.4176 97.8997 13.7315 97.1908 14.3594C96.482 14.9927 95.9432 15.9687 95.5709 17.2837C95.2899 18.3045 95.1467 20.3569 95.1467 23.4517V29.4796H92.8035L92.8018 11.6522Z" fill="white"/>
<path d="M104.545 4.30566C105.064 4.30566 105.511 4.49224 105.88 4.86361C106.243 5.23677 106.431 5.68528 106.431 6.20914C106.431 6.72583 106.245 7.16716 105.88 7.53674C105.511 7.91349 105.064 8.09827 104.545 8.09827C104.033 8.09827 103.591 7.91169 103.225 7.53674C102.855 7.16716 102.667 6.72583 102.667 6.20914C102.667 5.68528 102.853 5.23857 103.225 4.86361C103.591 4.49045 104.033 4.30566 104.545 4.30566ZM103.408 11.6523H105.694V29.4815H103.408V11.6523Z" fill="white"/>
<path d="M127.725 15.3569L125.912 16.4872C124.341 14.3971 122.203 13.3566 119.488 13.3566C117.324 13.3566 115.518 14.0563 114.095 15.452C112.661 16.8532 111.943 18.5432 111.943 20.5399C111.943 21.8406 112.271 23.0588 112.929 24.2105C113.586 25.3587 114.497 26.2504 115.643 26.8801C116.796 27.5134 118.077 27.8273 119.504 27.8273C122.121 27.8273 124.256 26.7814 125.912 24.6913L127.727 25.8934C126.877 27.1779 125.733 28.179 124.301 28.8786C122.867 29.5855 121.233 29.9389 119.402 29.9389C116.586 29.9389 114.254 29.0509 112.399 27.2532C110.547 25.4628 109.625 23.2794 109.625 20.7122C109.625 18.9845 110.055 17.3824 110.923 15.9077C111.784 14.4204 112.981 13.2633 114.499 12.4308C116.014 11.602 117.709 11.1912 119.581 11.1912C120.761 11.1912 121.897 11.3724 122.989 11.7312C124.086 12.0936 125.015 12.5582 125.778 13.1377C126.546 13.719 127.19 14.4599 127.725 15.3569Z" fill="white"/>
<path d="M132.109 4.76685H134.399V18.8537L142.647 11.6524H146.009L136.232 20.1615L146.589 29.4798H143.361L134.397 21.4532V29.4798H132.107L132.109 4.76685Z" fill="white"/>
<path d="M163.919 23.5683L165.848 24.5784C165.215 25.8324 164.486 26.8371 163.656 27.5996C162.829 28.3638 161.896 28.9451 160.861 29.3488C159.818 29.7434 158.649 29.9426 157.337 29.9426C154.432 29.9426 152.162 28.9935 150.524 27.0865C148.886 25.183 148.068 23.0283 148.068 20.6136C148.068 18.3602 148.766 16.3401 150.15 14.573C151.904 12.3197 154.26 11.1948 157.203 11.1948C160.235 11.1948 162.662 12.352 164.474 14.6519C165.763 16.2827 166.418 18.3154 166.436 20.7517H150.428C150.465 22.8184 151.131 24.5192 152.404 25.8468C153.685 27.1708 155.262 27.831 157.138 27.831C158.046 27.831 158.928 27.6695 159.786 27.3592C160.64 27.0434 161.37 26.6182 161.973 26.1033C162.575 25.5723 163.222 24.7345 163.919 23.5683ZM163.919 18.7603C163.618 17.5422 163.171 16.559 162.589 15.8324C162.002 15.104 161.228 14.5048 160.264 14.0635C159.306 13.6114 158.295 13.3854 157.24 13.3854C155.495 13.3854 153.995 13.9469 152.742 15.0718C151.818 15.8934 151.127 17.1277 150.655 18.7603H163.919Z" fill="white"/>
<path d="M169.833 11.6522H172.174V14.25C172.871 13.231 173.606 12.4596 174.38 11.9554C175.158 11.4459 175.969 11.1912 176.803 11.1912C177.435 11.1912 178.108 11.3939 178.833 11.8011L177.637 13.7261C177.152 13.5234 176.755 13.4176 176.424 13.4176C175.665 13.4176 174.927 13.7315 174.222 14.3594C173.513 14.9927 172.974 15.9687 172.604 17.2837C172.316 18.3045 172.174 20.3569 172.174 23.4517V29.4796H169.833V11.6522Z" fill="white"/>
</svg>
