<svg width="228" height="195" viewBox="0 0 228 195" fill="none" xmlns="http://www.w3.org/2000/svg">
<path d="M32.2712 111.597L0.884766 55.823L32.2712 0L64.2232 55.823L32.2712 111.597Z" fill="#0576AE"/>
<path d="M110.972 111.597L79.6177 55.823L110.972 0L142.924 55.823L110.972 111.597Z" fill="#93BB3E"/>
<path d="M74.9029 194.575L43.521 138.9L74.9029 83.0542L106.248 138.9L74.9029 194.575Z" fill="#B21E3C"/>
<path d="M153.567 194.575L121.588 138.9L153.567 83.0542L184.908 138.9L153.567 194.575Z" fill="#EDB01F"/>
<path d="M195.597 111.597L164.233 55.823L195.597 0L227.535 55.823L195.597 111.597Z" fill="#7BC4E4"/>
<path d="M32.2713 43.6173H21.5918L23.352 65.0612L32.8413 67.9839L42.3307 65.0612L44.1 43.6173H32.2713ZM39.3393 49.9954H32.2713H28.6735V53.4911H32.2713H38.7374L38.1674 62.2011L32.2759 63.9377L26.3388 62.2011V59.2649H29.2936V59.8916L32.2759 61.5924L35.2308 60.4063V56.933H32.2713H25.7277L25.1076 47.0548H32.2713H39.3439V49.9954H39.3393Z" fill="white"/>
<path d="M100.931 44.7407L102.655 65.6564L110.977 67.9884L119.217 65.6564L120.995 44.7407H100.931ZM117.479 51.1591V53.491L116.276 61.5924L110.972 62.7292L105.646 61.5924L105.031 57.5596H107.438V59.8915L110.384 60.4063L113.33 59.8915L113.941 56.4272H105.031V54.0192H114.52V51.6828H104.456V49.3867H110.972H117.479V51.1591Z" fill="white"/>
<path d="M80.2289 126.667C80.7943 126.667 81.3689 126.667 81.3689 127.182L86.6539 136.599C86.6539 137.199 86.6539 137.709 86.6539 137.709L81.3689 147.005C81.3689 147.578 80.7943 147.578 80.2289 147.578H68.9429C68.3638 147.578 67.7527 147.578 67.7527 147.005L62.3902 137.709C62.3902 137.199 62.3902 136.599 62.3902 136.599L67.7527 127.182C67.7527 126.667 68.3638 126.667 68.9429 126.667H80.2289ZM80.2289 124.349H68.9429C67.7527 124.349 66.6082 124.953 65.3815 126.072L60.0554 135.977C59.4854 137.194 59.4854 138.313 60.0554 140.019L65.3815 149.328C65.9926 150.474 67.169 151.038 68.9429 151.038H80.2289C81.3689 151.038 82.559 150.474 83.7036 149.328L89.016 140.019C89.6362 138.895 89.6362 137.704 89.016 135.977L83.7036 126.067C83.1382 124.953 81.9526 124.349 80.2289 124.349Z" fill="white"/>
<path d="M70.1282 142.346C68.9381 142.346 68.359 142.346 67.7479 141.791C67.1688 141.16 67.1688 140.677 66.6079 140.019H68.3589C68.3589 140.672 68.3589 140.672 68.9381 141.16C68.9381 141.16 69.5491 141.791 70.1282 142.346C70.6891 141.791 70.6891 141.791 71.3184 141.16C71.3184 141.16 71.9294 140.677 71.9294 140.019V135.382H70.1237V133.667H74.2961V140.019C74.2961 141.16 74.2961 141.791 73.6713 142.346C71.934 142.346 71.3229 142.346 70.1282 142.346Z" fill="white"/>
<path d="M82.5544 140.023C82.5544 141.164 81.9479 141.795 81.3688 142.35C80.7942 142.928 79.6177 142.928 78.3957 142.928C77.2329 142.928 76.0427 142.928 75.4818 142.35C74.9027 141.795 74.3008 141.164 74.3008 140.681L76.0427 140.028C76.0427 140.681 76.672 140.681 76.672 141.169C77.2329 141.169 77.812 141.8 78.3911 141.8C79.6132 141.8 80.7897 141.169 80.7897 140.685V140.032L80.2242 139.553C80.2242 139.553 79.6132 139.553 78.3911 138.909C77.812 138.909 77.2283 138.327 77.2283 138.327C77.2283 138.327 76.6674 138.327 76.6674 137.718L76.0381 137.208C76.0381 137.208 76.0381 136.608 75.4773 136.608C75.4773 136.608 75.4773 135.986 75.4773 135.395C75.4773 134.804 76.0381 133.681 76.6674 133.681C77.2283 133.681 78.3865 133.059 79.6132 133.059C80.7897 133.059 81.3642 133.059 81.9479 133.681C82.5544 134.281 83.1335 134.8 83.1335 135.395H81.3642C81.3642 134.8 80.7897 134.8 80.7897 134.28C80.2242 134.28 80.2242 133.681 79.6132 133.681C78.3911 133.681 77.8074 134.281 77.8074 134.8V135.395C77.8074 135.395 78.3865 135.395 78.3865 135.99C78.3865 135.99 78.993 135.99 80.2197 136.612C81.3597 136.612 81.9433 137.212 81.9433 137.212C82.5498 137.212 82.5498 137.722 83.1289 137.722L83.6944 138.331C82.5544 138.9 82.5544 139.54 82.5544 140.023Z" fill="white"/>
<path d="M190.266 55.823C190.266 55.2322 190.266 54.0237 188.502 54.0237H186.696L186.13 58.1594H187.9C189.126 58.1549 189.692 56.4272 190.266 55.823Z" fill="white"/>
<path d="M208.639 58.1549C208.064 58.7502 206.878 59.2649 205.693 59.2649H203.281L202.136 62.2011H199.76L202.136 52.2826H206.883C207.453 52.2826 208.069 52.2826 208.069 52.8958C206.263 47.6724 201.511 43.6173 195.601 43.6173C188.506 43.6173 182.578 49.3867 182.578 56.4272C182.578 57.5596 182.578 58.7547 183.198 59.8916L184.338 52.2826H189.135C191.461 52.2826 192.063 54.0192 192.063 55.823C192.063 56.933 190.877 59.896 187.909 59.896H185.524L184.922 62.7337H184.343C186.709 66.8694 190.882 69.2014 195.611 69.2014C202.131 68.6061 207.448 64.5375 208.639 58.1549C208.639 57.5596 208.639 57.5596 208.639 56.933C208.639 57.5596 208.639 58.1549 208.639 58.1549ZM197.375 59.8916C197.375 59.8916 197.945 55.8185 198.561 55.2277C198.561 54.0192 197.945 54.0192 196.801 54.0192C196.185 54.0192 195.592 54.0192 195.592 54.0192L194.434 59.8916H192.049L193.814 49.3867H196.19L195.597 52.2826C196.19 52.2826 197.38 52.2826 198.561 52.2826C199.756 52.2826 200.905 52.8958 200.905 54.0192C200.905 55.2277 199.756 59.8916 199.756 59.8916H197.375Z" fill="white"/>
<path d="M203.882 53.4911L203.276 57.5596H205.114C206.878 57.5596 207.448 55.823 207.448 55.2277C207.448 54.6145 207.448 53.4911 205.688 53.4911H203.882Z" fill="white"/>
<path d="M153.567 140.023L150.006 149.333C151.196 149.333 151.789 149.901 152.947 149.901C154.169 149.901 155.332 149.901 156.554 149.333L153.567 140.023Z" fill="white"/>
<path d="M142.341 138.9C142.341 142.923 144.689 147.01 148.232 148.711L142.925 134.791C142.925 135.977 142.341 137.709 142.341 138.9Z" fill="white"/>
<path d="M160.631 138.318C160.631 137.199 160.065 135.981 159.486 135.386C158.907 134.271 158.31 133.672 158.31 133.054C158.31 131.935 158.907 131.335 160.065 131.335C158.31 129.518 155.332 128.413 152.943 128.413C149.422 128.413 145.865 130.14 144.096 133.054H144.689C145.87 133.054 147.635 133.054 147.635 133.054C148.237 133.054 148.237 133.676 147.635 134.272C147.635 134.272 147.051 134.272 146.481 134.272L150.612 145.824L152.947 138.9L151.196 134.272C150.612 134.272 150.006 134.272 150.006 134.272C149.422 134.272 149.422 133.054 150.006 133.054C150.006 133.054 151.789 133.054 152.947 133.054C154.169 133.054 155.929 133.054 155.929 133.054C156.554 133.054 156.554 133.676 155.929 134.272C155.929 134.272 155.332 134.272 154.748 134.272L158.907 145.824L160.065 142.35C160.631 140.676 160.631 139.54 160.631 138.318Z" fill="white"/>
<path d="M163.048 134.271C163.048 134.791 163.048 134.791 163.048 135.386C163.048 136.599 163.048 137.713 162.478 139.544L158.907 148.715C161.858 147.01 164.233 143.487 164.233 139.544C164.233 137.199 163.618 135.386 163.048 134.271Z" fill="white"/>
<path d="M153.567 125.463C145.87 125.463 139.979 131.335 139.979 138.9C139.979 146.374 145.87 152.224 153.567 152.224C161.242 152.224 167.179 146.374 167.179 138.9C167.179 131.331 161.237 125.463 153.567 125.463ZM153.567 151.043C147.047 151.043 141.775 145.824 141.775 139.544C141.775 133.054 147.047 127.808 153.567 127.808C160.065 127.808 165.423 133.054 165.423 139.544C165.419 145.824 160.065 151.043 153.567 151.043Z" fill="white"/>
</svg>
