<svg width="29" height="29" viewBox="0 0 29 29" fill="none" xmlns="http://www.w3.org/2000/svg">
<path d="M22.6932 19.8346C22.1468 19.3112 21.6149 18.7728 21.0983 18.2199C20.6643 17.7789 20.403 17.4581 20.403 17.4581L17.1363 15.8983C18.4442 14.415 19.166 12.5056 19.1663 10.5281C19.1663 6.02595 15.503 2.36145 10.9997 2.36145C6.49634 2.36145 2.83301 6.02595 2.83301 10.5281C2.83301 15.0303 6.49634 18.6948 10.9997 18.6948C13.0565 18.6948 14.9313 17.9248 16.3698 16.6659L17.9297 19.9326C17.9297 19.9326 18.2505 20.1939 18.6915 20.6279C19.143 21.0514 19.7368 21.6243 20.3062 22.2228L21.8905 23.8468L22.5952 24.6004L25.0697 22.1259L24.316 21.4213C23.8738 20.9873 23.2835 20.4109 22.6932 19.8346ZM10.9997 16.3614C7.78317 16.3614 5.16634 13.7446 5.16634 10.5281C5.16634 7.31162 7.78317 4.69478 10.9997 4.69478C14.2162 4.69478 16.833 7.31162 16.833 10.5281C16.833 13.7446 14.2162 16.3614 10.9997 16.3614Z" fill="#05405E"/>
</svg>
