<svg width="29" height="29" viewBox="0 0 29 29" fill="none" xmlns="http://www.w3.org/2000/svg">
<path d="M23.833 3.52808H5.16634C3.87951 3.52808 2.83301 4.57458 2.83301 5.86141V22.1947C2.83301 23.4816 3.87951 24.5281 5.16634 24.5281H23.833C25.1198 24.5281 26.1663 23.4816 26.1663 22.1947V5.86141C26.1663 4.57458 25.1198 3.52808 23.833 3.52808ZM23.8342 10.5281C23.833 10.5281 23.833 10.5281 23.8342 10.5281H23.2917L20.1802 5.86141H23.833L23.8342 10.5281ZM18.583 17.5281L12.1663 21.0281V14.0281L18.583 17.5281ZM17.4583 10.5281L14.3468 5.86141H17.3755L20.487 10.5281H17.4583ZM14.6537 10.5281H11.625L8.51351 5.86141H11.5422L14.6537 10.5281ZM5.16634 5.86141H5.70884L8.82034 10.5281H5.16634V5.86141Z" fill="#05405E"/>
</svg>
