<svg width="29" height="29" viewBox="0 0 29 29" fill="none" xmlns="http://www.w3.org/2000/svg">
<path d="M23.833 3.52808H5.16634C3.87951 3.52808 2.83301 4.57458 2.83301 5.86141V22.1947C2.83301 23.4816 3.87951 24.5281 5.16634 24.5281H23.833C25.1198 24.5281 26.1663 23.4816 26.1663 22.1947V5.86141C26.1663 4.57458 25.1198 3.52808 23.833 3.52808ZM5.16634 22.1947V8.19474H23.833L23.8353 22.1947H5.16634Z" fill="#05405E"/>
<path d="M11.3414 10.8699L7.0166 15.1947L11.3414 19.5195L12.9911 17.8699L10.3159 15.1947L12.9911 12.5195L11.3414 10.8699ZM17.6578 10.8699L16.0081 12.5195L18.6833 15.1947L16.0081 17.8699L17.6578 19.5195L21.9826 15.1947L17.6578 10.8699Z" fill="#05595B"/>
</svg>
